<svg width="244" height="35" viewBox="0 0 244 35" fill="none" xmlns="http://www.w3.org/2000/svg">
<path d="M243.252 12.6637C243.05 11.9425 242.656 11.2896 242.113 10.7743C241.554 10.2431 240.869 9.86321 240.122 9.67034C237.328 8.93389 226.134 8.93389 226.134 8.93389C221.467 8.8808 216.802 9.11432 212.164 9.63315C211.417 9.84026 210.733 10.2287 210.173 10.7639C209.623 11.2935 209.224 11.9466 209.016 12.6623C208.515 15.3577 208.272 18.0946 208.289 20.8361C208.272 23.5751 208.514 26.3111 209.016 29.0099C209.219 29.7226 209.617 30.3727 210.169 30.8979C210.721 31.4231 211.408 31.8025 212.164 32.0033C214.995 32.7383 226.134 32.7383 226.134 32.7383C230.806 32.7915 235.478 32.5579 240.122 32.039C240.869 31.8462 241.554 31.4662 242.113 30.9351C242.656 30.4199 243.049 29.7669 243.251 29.0456C243.764 26.3512 244.014 23.6132 243.996 20.8703C244.035 18.1159 243.785 15.3649 243.252 12.6623V12.6637ZM222.575 25.9302V15.7434L231.889 20.8376L222.575 25.9302Z" fill="white"/>
<path d="M9.02336 34.2145V22.0207H13.1371L13.7485 17.2464H9.02336V14.2054C9.02336 12.8277 9.40721 11.8844 11.3845 11.8844H13.8899V7.62792C12.6708 7.49728 11.4455 7.4342 10.2195 7.43897C6.58341 7.43897 4.08692 9.65873 4.08692 13.7338V17.2375H0V22.0117H4.09585V34.2145H9.02336Z" fill="white"/>
<path d="M65.3877 15.3596C65.3727 14.2328 65.1618 13.1172 64.7643 12.0627C64.4197 11.1733 63.8933 10.3655 63.2188 9.69096C62.5443 9.01645 61.7365 8.49006 60.847 8.14541C59.8061 7.75466 58.7064 7.54337 57.5947 7.52055C56.1635 7.45657 55.7097 7.43872 52.0766 7.43872C48.4434 7.43872 47.9778 7.43872 46.5569 7.52055C45.4458 7.54354 44.3466 7.75483 43.3061 8.14541C42.4165 8.48982 41.6086 9.01613 40.9341 9.69067C40.2595 10.3652 39.7332 11.1731 39.3888 12.0627C38.9973 13.1029 38.7865 14.2023 38.7654 15.3135C38.7015 16.7462 38.6821 17.2 38.6821 20.8332C38.6821 24.4663 38.6821 24.9305 38.7654 26.3528C38.7878 27.4657 38.9975 28.5636 39.3888 29.6066C39.7338 30.4959 40.2605 31.3035 40.9353 31.9778C41.61 32.652 42.418 33.1781 43.3076 33.5224C44.3452 33.9289 45.4446 34.1553 46.5584 34.1919C47.9911 34.2559 48.4449 34.2752 52.0781 34.2752C55.7112 34.2752 56.1769 34.2752 57.5977 34.1919C58.7093 34.17 59.8091 33.9592 60.85 33.5685C61.7392 33.2235 62.5468 32.6969 63.2213 32.0225C63.8957 31.348 64.4223 30.5404 64.7673 29.6512C65.1586 28.6098 65.3684 27.5118 65.3907 26.3974C65.4546 24.9662 65.474 24.5124 65.474 20.8778C65.471 17.2446 65.471 16.7834 65.3877 15.3596ZM52.0676 27.7037C48.2679 27.7037 45.1897 24.6255 45.1897 20.8257C45.1897 17.0259 48.2679 13.9477 52.0676 13.9477C53.8918 13.9477 55.6412 14.6724 56.9311 15.9623C58.221 17.2521 58.9456 19.0016 58.9456 20.8257C58.9456 22.6499 58.221 24.3993 56.9311 25.6892C55.6412 26.9791 53.8918 27.7037 52.0676 27.7037ZM59.2194 15.2972C59.0087 15.2973 58.8001 15.256 58.6054 15.1755C58.4107 15.0949 58.2338 14.9768 58.0849 14.8278C57.9359 14.6789 57.8178 14.502 57.7372 14.3073C57.6567 14.1126 57.6154 13.904 57.6156 13.6933C57.6156 13.4828 57.657 13.2744 57.7376 13.0799C57.8181 12.8854 57.9362 12.7086 58.0851 12.5598C58.234 12.4109 58.4107 12.2928 58.6052 12.2123C58.7997 12.1317 59.0081 12.0903 59.2186 12.0903C59.4292 12.0903 59.6376 12.1317 59.8321 12.2123C60.0266 12.2928 60.2033 12.4109 60.3522 12.5598C60.501 12.7086 60.6191 12.8854 60.6997 13.0799C60.7803 13.2744 60.8217 13.4828 60.8217 13.6933C60.8217 14.58 60.1046 15.2972 59.2194 15.2972Z" fill="white"/>
<path d="M52.0674 25.2928C54.5349 25.2928 56.5352 23.2925 56.5352 20.825C56.5352 18.3575 54.5349 16.3572 52.0674 16.3572C49.5999 16.3572 47.5996 18.3575 47.5996 20.825C47.5996 23.2925 49.5999 25.2928 52.0674 25.2928Z" fill="white"/>
<path d="M123.048 10.6962C121.806 11.2467 120.471 11.6187 119.068 11.7868C120.516 10.9206 121.599 9.55729 122.115 7.95129C120.755 8.75913 119.267 9.32777 117.714 9.63247C116.671 8.51793 115.288 7.77919 113.781 7.53095C112.274 7.28271 110.728 7.53886 109.382 8.25963C108.035 8.9804 106.965 10.1255 106.336 11.517C105.707 12.9086 105.556 14.4689 105.904 15.9555C103.149 15.8172 100.453 15.1009 97.9915 13.8532C95.5305 12.6054 93.3592 10.8542 91.6188 8.71303C91.0237 9.73959 90.6815 10.9298 90.6815 12.1974C90.6808 13.3385 90.9618 14.4622 91.4996 15.4686C92.0373 16.4751 92.8152 17.3333 93.7641 17.967C92.6636 17.932 91.5873 17.6346 90.6249 17.0996V17.1889C90.6248 18.7893 91.1784 20.3406 92.1918 21.5793C93.2052 22.8181 94.616 23.668 96.1848 23.985C95.1638 24.2613 94.0934 24.302 93.0545 24.1041C93.4971 25.4812 94.3593 26.6854 95.5203 27.5482C96.6813 28.4109 98.083 28.889 99.5293 28.9155C97.0742 30.8428 94.0422 31.8882 90.921 31.8836C90.3681 31.8838 89.8157 31.8515 89.2666 31.7869C92.4348 33.824 96.1228 34.9051 99.8893 34.9009C112.64 34.9009 119.61 24.3406 119.61 15.1819C119.61 14.8843 119.602 14.5838 119.589 14.2862C120.945 13.3058 122.115 12.0916 123.045 10.7007L123.048 10.6962Z" fill="white"/>
<path fill-rule="evenodd" clip-rule="evenodd" d="M161.106 11.9236H168.013V15.0888C169.008 13.2684 171.559 11.6327 175.392 11.6327C182.74 11.6327 184.484 15.2565 184.484 21.9052V34.2188H177.046V23.4194C177.046 19.6331 176.051 17.4978 173.518 17.4978C170.005 17.4978 168.545 19.799 168.545 23.4177V34.2188H161.106V11.9236ZM148.35 33.928H155.789V11.6327H148.35V33.928ZM156.855 4.3629C156.855 4.93654 156.731 5.5045 156.491 6.03379C156.25 6.56307 155.898 7.04312 155.454 7.44602C154.555 8.26834 153.337 8.72863 152.07 8.72581C150.804 8.72502 149.589 8.2659 148.689 7.44773C148.246 7.04346 147.895 6.56287 147.655 6.03352C147.415 5.50417 147.291 4.93645 147.29 4.3629C147.29 3.2046 147.792 2.0959 148.69 1.27807C149.59 0.458804 150.805 -0.000511932 152.071 4.28188e-07C153.34 4.28188e-07 154.556 0.460244 155.454 1.27807C156.351 2.0959 156.855 3.2046 156.855 4.3629Z" fill="white"/>
</svg>
