<svg width="139" height="20" viewBox="0 0 139 20" fill="none" xmlns="http://www.w3.org/2000/svg">
<path d="M138.574 7.25693C138.459 6.84363 138.235 6.46945 137.925 6.17417C137.606 5.8698 137.216 5.65208 136.791 5.54156C135.199 5.11954 128.822 5.11954 128.822 5.11954C126.164 5.08911 123.506 5.22293 120.864 5.52025C120.438 5.63894 120.049 5.86152 119.73 6.1682C119.416 6.47172 119.189 6.84599 119.07 7.25608C118.785 8.80072 118.647 10.3691 118.657 11.9401C118.647 13.5097 118.785 15.0776 119.07 16.6241C119.186 17.0325 119.413 17.4051 119.727 17.706C120.042 18.007 120.433 18.2244 120.864 18.3395C122.477 18.7607 128.822 18.7607 128.822 18.7607C131.484 18.7911 134.145 18.6573 136.791 18.36C137.216 18.2494 137.606 18.0317 137.925 17.7274C138.234 17.4321 138.459 17.0579 138.573 16.6446C138.866 15.1005 139.008 13.5315 138.998 11.9597C139.02 10.3813 138.878 8.80483 138.574 7.25608V7.25693ZM126.795 14.8593V9.02175L132.101 11.941L126.795 14.8593Z" fill="#2F2FFF"/>
<path d="M5.14036 19.6067V12.619H7.48381L7.83215 9.88309H5.14036V8.14044C5.14036 7.35096 5.35902 6.81043 6.48541 6.81043H7.91267V4.37122C7.21823 4.29636 6.5202 4.26021 5.82178 4.26295C3.75038 4.26295 2.3282 5.53498 2.3282 7.87017V9.87798H0V12.6139H2.33329V19.6067H5.14036Z" fill="#2F2FFF"/>
<path d="M37.2495 8.80189C37.241 8.15617 37.1208 7.51687 36.8944 6.91259C36.6981 6.40288 36.3982 5.93998 36.014 5.55345C35.6297 5.16692 35.1695 4.86527 34.6628 4.66777C34.0698 4.44385 33.4434 4.32277 32.8101 4.30969C31.9948 4.27303 31.7363 4.2628 29.6666 4.2628C27.5969 4.2628 27.3316 4.2628 26.5222 4.30969C25.8892 4.32287 25.263 4.44395 24.6703 4.66777C24.1635 4.86513 23.7033 5.16674 23.319 5.55328C22.9347 5.93983 22.6349 6.4028 22.4387 6.91259C22.2157 7.50865 22.0956 8.13868 22.0836 8.77546C22.0472 9.59649 22.0361 9.85652 22.0361 11.9385C22.0361 14.0205 22.0361 14.2865 22.0836 15.1015C22.0963 15.7393 22.2158 16.3685 22.4387 16.9661C22.6352 17.4757 22.9353 17.9385 23.3197 18.3249C23.7041 18.7113 24.1644 19.0128 24.6711 19.2101C25.2623 19.443 25.8885 19.5727 26.523 19.5937C27.3392 19.6304 27.5977 19.6415 29.6674 19.6415C31.7371 19.6415 32.0024 19.6415 32.8118 19.5937C33.4451 19.5812 34.0716 19.4604 34.6645 19.2365C35.1711 19.0388 35.6312 18.737 36.0154 18.3505C36.3996 17.964 36.6996 17.5013 36.8961 16.9917C37.119 16.3949 37.2385 15.7657 37.2512 15.1271C37.2877 14.3069 37.2987 14.0469 37.2987 11.9641C37.297 9.8821 37.297 9.6178 37.2495 8.80189ZM29.6615 15.8757C27.4969 15.8757 25.7433 14.1117 25.7433 11.9342C25.7433 9.75677 27.4969 7.9928 29.6615 7.9928C30.7007 7.9928 31.6973 8.40806 32.4321 9.14722C33.1669 9.88638 33.5797 10.8889 33.5797 11.9342C33.5797 12.9796 33.1669 13.9821 32.4321 14.7212C31.6973 15.4604 30.7007 15.8757 29.6615 15.8757ZM33.7356 8.76608C33.6156 8.76619 33.4968 8.7425 33.3859 8.69635C33.275 8.6502 33.1742 8.58251 33.0893 8.49714C33.0045 8.41178 32.9372 8.31041 32.8913 8.19886C32.8454 8.0873 32.8219 7.96774 32.822 7.84701C32.822 7.72637 32.8456 7.60691 32.8915 7.49546C32.9374 7.384 33.0047 7.28273 33.0895 7.19743C33.1743 7.11213 33.2749 7.04446 33.3857 6.99829C33.4965 6.95213 33.6153 6.92836 33.7352 6.92836C33.8551 6.92836 33.9739 6.95213 34.0847 6.99829C34.1955 7.04446 34.2962 7.11213 34.381 7.19743C34.4658 7.28273 34.533 7.384 34.5789 7.49546C34.6248 7.60691 34.6484 7.72637 34.6484 7.84701C34.6484 8.35514 34.2399 8.76608 33.7356 8.76608Z" fill="#2F2FFF"/>
<path d="M29.6614 14.4941C31.067 14.4941 32.2066 13.3478 32.2066 11.9338C32.2066 10.5198 31.067 9.37352 29.6614 9.37352C28.2557 9.37352 27.1162 10.5198 27.1162 11.9338C27.1162 13.3478 28.2557 14.4941 29.6614 14.4941Z" fill="#2F2FFF"/>
<path d="M70.0969 6.12952C69.3892 6.44497 68.6289 6.65812 67.8297 6.75446C68.6544 6.25808 69.2713 5.47685 69.5655 4.55653C68.7907 5.01947 67.9427 5.34532 67.0584 5.51993C66.4638 4.88124 65.6761 4.45791 64.8178 4.31566C63.9595 4.1734 63.0784 4.32019 62.3115 4.73323C61.5446 5.14626 60.9347 5.80244 60.5765 6.59989C60.2184 7.39733 60.1319 8.29143 60.3306 9.14336C58.7607 9.06407 57.2249 8.6536 55.8229 7.9386C54.4209 7.22359 53.184 6.22003 52.1925 4.99304C51.8535 5.58132 51.6586 6.26338 51.6586 6.98977C51.6582 7.64368 51.8183 8.28758 52.1246 8.86434C52.4309 9.4411 52.8741 9.93287 53.4147 10.296C52.7877 10.276 52.1746 10.1056 51.6263 9.79899V9.85014C51.6263 10.7673 51.9417 11.6562 52.519 12.3661C53.0963 13.0759 53.8999 13.563 54.7936 13.7447C54.212 13.903 53.6023 13.9263 53.0104 13.8129C53.2625 14.602 53.7537 15.2921 54.4151 15.7865C55.0765 16.2809 55.875 16.5549 56.6989 16.5701C55.3003 17.6745 53.5731 18.2736 51.795 18.271C51.48 18.2711 51.1653 18.2526 50.8525 18.2156C52.6574 19.3829 54.7583 20.0024 56.904 20C64.1675 20 68.1382 13.9484 68.1382 8.70002C68.1382 8.52951 68.134 8.35729 68.1263 8.18677C68.8987 7.62491 69.5654 6.92914 70.0952 6.13208L70.0969 6.12952Z" fill="#2F2FFF"/>
<path fill-rule="evenodd" clip-rule="evenodd" d="M91.7777 6.8328H95.7125V8.64665C96.2793 7.60344 97.7328 6.66612 99.9163 6.66612C104.102 6.66612 105.096 8.74273 105.096 12.5528V19.6091H100.858V13.4205C100.858 11.2507 100.291 10.0271 98.8484 10.0271C96.8471 10.0271 96.0155 11.3458 96.0155 13.4195V19.6091H91.7777V6.8328ZM84.5111 19.4425H88.7488V6.66612H84.5111V19.4425ZM89.3559 2.50016C89.356 2.82889 89.2856 3.15436 89.1486 3.45767C89.0117 3.76097 88.811 4.03606 88.5581 4.26695C88.0458 4.73818 87.3523 5.00195 86.63 5.00033C85.9089 4.99988 85.217 4.73678 84.7039 4.26793C84.452 4.03626 84.252 3.76086 84.1152 3.45751C83.9785 3.15417 83.9078 2.82884 83.9072 2.50016C83.9072 1.8364 84.1933 1.20106 84.705 0.732401C85.2176 0.262918 85.9098 -0.000293363 86.631 2.45373e-07C87.3536 2.45373e-07 88.0464 0.263743 88.5581 0.732401C89.0688 1.20106 89.3559 1.8364 89.3559 2.50016Z" fill="#2F2FFF"/>
</svg>
