<svg width="111" height="12" viewBox="0 0 111 12" fill="none" xmlns="http://www.w3.org/2000/svg">
<path d="M109.875 4.30789C109.806 4.06256 109.672 3.84044 109.487 3.66516C109.297 3.48449 109.064 3.35525 108.81 3.28964C107.86 3.03913 104.052 3.03913 104.052 3.03913C102.464 3.02107 100.877 3.10051 99.2996 3.27699C99.0456 3.34745 98.813 3.47957 98.6225 3.66162C98.4352 3.84179 98.2996 4.06396 98.2287 4.30739C98.0585 5.22429 97.9758 6.15529 97.9818 7.08783C97.9757 8.01954 98.0582 8.95023 98.2287 9.86828C98.2981 10.1107 98.4332 10.3319 98.6209 10.5105C98.8087 10.6892 99.0425 10.8182 99.2996 10.8865C100.263 11.1365 104.052 11.1365 104.052 11.1365C105.641 11.1546 107.23 11.0752 108.81 10.8987C109.064 10.8331 109.297 10.7038 109.487 10.5232C109.672 10.3479 109.806 10.1258 109.874 9.88042C110.049 8.96387 110.134 8.03249 110.128 7.09947C110.141 6.1625 110.056 5.22673 109.875 4.30739V4.30789ZM102.841 8.82067V5.35549L106.009 7.08834L102.841 8.82067Z" fill="white"/>
<path d="M3.06942 11.6388V7.49089H4.46875L4.67675 5.86685H3.06942V4.83241C3.06942 4.36377 3.19999 4.04291 3.87258 4.04291H4.72483V2.595C4.31016 2.55056 3.89336 2.5291 3.47632 2.53073C2.23944 2.53073 1.39022 3.28581 1.39022 4.67198V5.86382H0V7.48785H1.39326V11.6388H3.06942Z" fill="white"/>
<path d="M28.8089 5.22517C28.8038 4.84187 28.732 4.46238 28.5968 4.10368C28.4796 3.80112 28.3005 3.52634 28.0711 3.29689C27.8416 3.06745 27.5669 2.88839 27.2643 2.77115C26.9102 2.63823 26.5361 2.56636 26.158 2.5586C25.6711 2.53683 25.5168 2.53076 24.2809 2.53076C23.045 2.53076 22.8866 2.53076 22.4033 2.5586C22.0254 2.56642 21.6515 2.63829 21.2975 2.77115C20.9949 2.88831 20.7201 3.06734 20.4906 3.29679C20.2612 3.52625 20.0822 3.80107 19.965 4.10368C19.8318 4.4575 19.7601 4.83149 19.753 5.20948C19.7312 5.69685 19.7246 5.8512 19.7246 7.08707C19.7246 8.32293 19.7246 8.48083 19.753 8.96465C19.7605 9.34321 19.8319 9.7167 19.965 10.0715C20.0824 10.374 20.2615 10.6487 20.491 10.8781C20.7206 11.1074 20.9954 11.2864 21.298 11.4035C21.651 11.5417 22.025 11.6188 22.4038 11.6312C22.8912 11.653 23.0456 11.6596 24.2814 11.6596C25.5173 11.6596 25.6757 11.6596 26.159 11.6312C26.5371 11.6238 26.9112 11.5521 27.2653 11.4192C27.5678 11.3018 27.8425 11.1227 28.0719 10.8933C28.3014 10.6638 28.4805 10.3891 28.5978 10.0866C28.7309 9.73239 28.8023 9.35889 28.8099 8.97983C28.8317 8.49298 28.8382 8.33862 28.8382 7.10225C28.8372 5.86638 28.8372 5.7095 28.8089 5.22517ZM24.2779 9.42418C22.9853 9.42418 21.9382 8.37708 21.9382 7.08454C21.9382 5.79199 22.9853 4.74489 24.2779 4.74489C24.8984 4.74489 25.4935 4.99139 25.9323 5.43016C26.371 5.86893 26.6175 6.46403 26.6175 7.08454C26.6175 7.70505 26.371 8.30015 25.9323 8.73891C25.4935 9.17768 24.8984 9.42418 24.2779 9.42418ZM26.7106 5.20392C26.639 5.20398 26.568 5.18992 26.5018 5.16252C26.4356 5.13513 26.3754 5.09495 26.3247 5.04427C26.274 4.9936 26.2339 4.93343 26.2065 4.86721C26.1791 4.80099 26.165 4.73002 26.1651 4.65835C26.1651 4.58674 26.1792 4.51583 26.2066 4.44967C26.234 4.38351 26.2742 4.3234 26.3248 4.27276C26.3754 4.22212 26.4355 4.18196 26.5017 4.15455C26.5679 4.12715 26.6388 4.11304 26.7104 4.11304C26.782 4.11304 26.8529 4.12715 26.9191 4.15455C26.9852 4.18196 27.0453 4.22212 27.096 4.27276C27.1466 4.3234 27.1868 4.38351 27.2142 4.44967C27.2416 4.51583 27.2557 4.58674 27.2557 4.65835C27.2557 4.95998 27.0118 5.20392 26.7106 5.20392Z" fill="white"/>
<path d="M24.2776 8.60401C25.1169 8.60401 25.7974 7.92359 25.7974 7.08423C25.7974 6.24488 25.1169 5.56445 24.2776 5.56445C23.4382 5.56445 22.7578 6.24488 22.7578 7.08423C22.7578 7.92359 23.4382 8.60401 24.2776 8.60401Z" fill="white"/>
<path d="M55.3301 3.63885C54.9075 3.8261 54.4535 3.95262 53.9763 4.00981C54.4687 3.71516 54.8371 3.25142 55.0128 2.70512C54.5501 2.97992 54.0438 3.17335 53.5158 3.277C53.1607 2.89787 52.6904 2.64658 52.1778 2.56214C51.6653 2.47769 51.1392 2.56483 50.6813 2.81001C50.2234 3.05519 49.8592 3.4447 49.6453 3.91806C49.4314 4.39142 49.3798 4.92216 49.4984 5.42787C48.561 5.3808 47.644 5.13715 46.8068 4.71272C45.9696 4.28829 45.231 3.69258 44.639 2.96424C44.4366 3.31344 44.3202 3.71831 44.3202 4.14949C44.3199 4.53766 44.4155 4.91988 44.5984 5.26224C44.7814 5.60461 45.046 5.89653 45.3688 6.1121C44.9944 6.10019 44.6283 5.99903 44.3009 5.81705V5.84741C44.3009 6.39183 44.4892 6.9195 44.8339 7.34088C45.1786 7.76226 45.6585 8.05139 46.1922 8.15922C45.8449 8.25321 45.4808 8.26706 45.1274 8.19971C45.2779 8.66815 45.5712 9.07779 45.9661 9.37126C46.3611 9.66474 46.8379 9.82738 47.3299 9.8364C46.4947 10.492 45.4634 10.8476 44.4016 10.846C44.2136 10.8461 44.0257 10.8351 43.8389 10.8131C44.9166 11.5061 46.1711 11.8738 47.4523 11.8724C51.7895 11.8724 54.1605 8.28018 54.1605 5.1647C54.1605 5.06349 54.158 4.96126 54.1534 4.86004C54.6146 4.52651 55.0127 4.11351 55.3291 3.64037L55.3301 3.63885Z" fill="white"/>
<path fill-rule="evenodd" clip-rule="evenodd" d="M75.0297 4.05596H77.3792V5.13266C77.7177 4.51342 78.5856 3.95702 79.8894 3.95702C82.3889 3.95702 82.9823 5.1897 82.9823 7.45135V11.64H80.4518V7.96642C80.4518 6.67846 80.1134 5.95212 79.2518 5.95212C78.0568 5.95212 77.5602 6.73491 77.5602 7.96584V11.64H75.0297V4.05596ZM70.6907 11.5411H73.2211V3.95702H70.6907V11.5411ZM73.5836 1.4841C73.5837 1.67923 73.5416 1.87243 73.4598 2.05248C73.3781 2.23252 73.2582 2.39581 73.1072 2.53287C72.8013 2.81259 72.3872 2.96917 71.9559 2.9682C71.5253 2.96794 71.1122 2.81176 70.8058 2.53345C70.6554 2.39593 70.5359 2.23245 70.4543 2.05239C70.3727 1.87232 70.3304 1.6792 70.3301 1.4841C70.3301 1.09009 70.5009 0.712951 70.8064 0.434755C71.1125 0.156068 71.5259 -0.000174141 71.9565 1.45654e-07C72.388 1.45654e-07 72.8017 0.156558 73.1072 0.434755C73.4122 0.712951 73.5836 1.09009 73.5836 1.4841Z" fill="white"/>
</svg>
