<svg width="58" height="55" viewBox="0 0 58 55" fill="none" xmlns="http://www.w3.org/2000/svg">
<rect x="0.222656" y="0.950439" width="56.9194" height="53.739" rx="9" fill="white"/>
<path d="M25.6384 25.737H24.7718C23.5892 25.6967 22.4105 25.8862 21.3087 26.2939C20.2069 26.7015 19.2056 27.3187 18.367 28.1069L18.1279 28.3702V36.157H22.192V31.737L22.7398 31.1539L22.9888 30.8812C24.2857 29.6233 25.9002 28.6978 27.6804 28.1915C26.7891 27.5512 26.0862 26.7063 25.6384 25.737V25.737Z" fill="#FD5A2F"/>
<path d="M44.9027 28.0786C44.0641 27.2903 43.0628 26.6732 41.961 26.2656C40.8592 25.8579 39.6804 25.6683 38.4978 25.7087C38.1351 25.7097 37.7727 25.7285 37.4121 25.7651C36.956 26.6744 36.2722 27.4652 35.4199 28.0692C37.3204 28.5656 39.0421 29.5408 40.4004 30.8905L40.6494 31.1538L41.1873 31.7369V36.1663H45.1119V28.3419L44.9027 28.0786Z" fill="#FD5A2F"/>
<path d="M24.7421 23.9032H25.0509C24.9074 22.7401 25.1235 21.5626 25.6733 20.513C26.223 19.4633 27.0827 18.5863 28.1487 17.9878C27.7623 17.4305 27.2292 16.9775 26.6016 16.6731C25.974 16.3687 25.2734 16.2234 24.5685 16.2515C23.8636 16.2795 23.1784 16.4799 22.5802 16.8331C21.9819 17.1862 21.4911 17.68 21.1557 18.2661C20.8203 18.8521 20.6519 19.5104 20.6669 20.1764C20.682 20.8424 20.8799 21.4932 21.2415 22.0653C21.603 22.6373 22.1157 23.1109 22.7293 23.4397C23.343 23.7684 24.0365 23.9411 24.7421 23.9408V23.9032Z" fill="#FD5A2F"/>
<path d="M38.0197 23.1977C38.0318 23.4138 38.0318 23.6304 38.0197 23.8466C38.2109 23.8752 38.4039 23.8909 38.5974 23.8936H38.7867C39.4892 23.8582 40.1699 23.6517 40.7628 23.2942C41.3556 22.9367 41.8403 22.4404 42.1697 21.8535C42.499 21.2667 42.6618 20.6093 42.6422 19.9454C42.6226 19.2815 42.4212 18.6337 42.0577 18.0651C41.6942 17.4965 41.181 17.0264 40.5679 16.7007C39.9549 16.375 39.263 16.2046 38.5595 16.2063C37.8561 16.208 37.1651 16.3816 36.5538 16.7102C35.9425 17.0389 35.4318 17.5114 35.0713 18.0817C35.9728 18.6374 36.7142 19.3958 37.2288 20.2887C37.7434 21.1816 38.0151 22.1811 38.0197 23.1977V23.1977Z" fill="#FD5A2F"/>
<path d="M31.4857 27.4109C33.9448 27.4109 35.9382 25.5288 35.9382 23.2071C35.9382 20.8855 33.9448 19.0034 31.4857 19.0034C29.0267 19.0034 27.0332 20.8855 27.0332 23.2071C27.0332 25.5288 29.0267 27.4109 31.4857 27.4109Z" fill="#FD5A2F"/>
<path d="M31.7248 29.6491C30.4239 29.5995 29.1259 29.7989 27.9088 30.2352C26.6917 30.6716 25.5807 31.3359 24.6426 32.1882L24.3936 32.4515V38.4045C24.3974 38.5984 24.4418 38.7897 24.524 38.9674C24.6062 39.1451 24.7246 39.3058 24.8726 39.4403C25.0206 39.5748 25.1953 39.6805 25.3865 39.7512C25.5778 39.822 25.7819 39.8565 25.9873 39.8527H37.4324C37.6378 39.8565 37.8419 39.822 38.0332 39.7512C38.2244 39.6805 38.399 39.5748 38.547 39.4403C38.695 39.3058 38.8135 39.1451 38.8957 38.9674C38.9779 38.7897 39.0222 38.5984 39.0261 38.4045V32.4703L38.7871 32.1882C37.855 31.3333 36.7479 30.6671 35.5335 30.2305C34.3191 29.7938 33.023 29.596 31.7248 29.6491V29.6491Z" fill="#FD5A2F"/>
</svg>
