<svg width="21" height="15" viewBox="0 0 21 15" fill="none" xmlns="http://www.w3.org/2000/svg">
<path d="M20.2457 2.54464C20.13 2.13196 19.9046 1.75835 19.5934 1.46351C19.2734 1.1596 18.8812 0.942214 18.4539 0.831857C16.8545 0.410471 10.4467 0.410471 10.4467 0.410471C7.77531 0.380091 5.10462 0.51371 2.44967 0.810575C2.0223 0.929085 1.63086 1.15133 1.31016 1.45755C0.995049 1.76061 0.766807 2.13432 0.647576 2.54379C0.36116 4.0861 0.222 5.65212 0.231971 7.22074C0.221751 8.78795 0.36057 10.3535 0.647576 11.8977C0.764252 12.3055 0.991642 12.6775 1.3076 12.978C1.62357 13.2785 2.01703 13.4956 2.44967 13.6105C4.07035 14.031 10.4467 14.031 10.4467 14.031C13.1214 14.0614 15.7955 13.9278 18.4539 13.6309C18.8812 13.5206 19.2734 13.3032 19.5934 12.9993C19.9044 12.7045 20.1296 12.3308 20.2449 11.9181C20.5388 10.3764 20.6817 8.80974 20.6716 7.24032C20.6937 5.66426 20.5509 4.0902 20.2457 2.54379V2.54464ZM8.40951 10.1355V4.3068L13.7408 7.22159L8.40951 10.1355Z" fill="white"/>
</svg>
