<svg width="36" height="25" viewBox="0 0 36 25" fill="none" xmlns="http://www.w3.org/2000/svg">
<path d="M35.2522 4.66399C35.05 3.94276 34.6562 3.2898 34.1126 2.77451C33.5536 2.24338 32.8685 1.86345 32.1219 1.67058C29.3279 0.934135 18.1339 0.934136 18.1339 0.934136C13.4672 0.881041 8.80169 1.11456 4.16366 1.63339C3.41708 1.84051 2.73326 2.22893 2.17302 2.7641C1.62254 3.29375 1.22382 3.94688 1.01553 4.6625C0.515178 7.35797 0.272074 10.0949 0.289492 12.8363C0.271639 15.5753 0.514147 18.3114 1.01553 21.0102C1.21935 21.7228 1.61659 22.373 2.16855 22.8982C2.72052 23.4234 3.40787 23.8027 4.16366 24.0036C6.9949 24.7385 18.1339 24.7385 18.1339 24.7385C22.8065 24.7917 27.4779 24.5582 32.1219 24.0393C32.8685 23.8464 33.5536 23.4665 34.1126 22.9354C34.656 22.4202 35.0494 21.7671 35.2507 21.0459C35.7641 18.3515 36.0138 15.6134 35.9961 12.8706C36.0347 10.1161 35.7854 7.36514 35.2522 4.6625V4.66399ZM14.5751 17.9305V7.74368L23.8886 12.8378L14.5751 17.9305Z" fill="white"/>
</svg>
