<svg width="58" height="55" viewBox="0 0 58 55" fill="none" xmlns="http://www.w3.org/2000/svg">
<rect x="0.994141" y="0.619873" width="56.9194" height="53.739" rx="9" fill="white"/>
<path d="M26.4099 25.4064H25.5433C24.3607 25.3661 23.182 25.5556 22.0802 25.9633C20.9784 26.371 19.9771 26.9881 19.1385 27.7763L18.8994 28.0397V35.8264H22.9635V31.4064L23.5113 30.8233L23.7603 30.5506C25.0572 29.2928 26.6717 28.3672 28.4519 27.861C27.5606 27.2207 26.8577 26.3757 26.4099 25.4064V25.4064Z" fill="#FD5A2F"/>
<path d="M45.6742 27.748C44.8355 26.9598 43.8343 26.3427 42.7325 25.935C41.6307 25.5273 40.4519 25.3378 39.2693 25.3781C38.9066 25.3791 38.5442 25.3979 38.1836 25.4345C37.7275 26.3439 37.0437 27.1346 36.1914 27.7386C38.0919 28.235 39.8136 29.2103 41.1719 30.5599L41.4209 30.8232L41.9588 31.4063V35.8357H45.8834V28.0113L45.6742 27.748Z" fill="#FD5A2F"/>
<path d="M25.5136 23.5725H25.8223C25.6789 22.4094 25.895 21.232 26.4447 20.1823C26.9944 19.1326 27.8542 18.2556 28.9202 17.6572C28.5338 17.0998 28.0007 16.6468 27.3731 16.3424C26.7455 16.038 26.0449 15.8927 25.34 15.9208C24.635 15.9488 23.9499 16.1492 23.3517 16.5024C22.7534 16.8555 22.2626 17.3493 21.9272 17.9354C21.5918 18.5214 21.4234 19.1797 21.4384 19.8457C21.4535 20.5117 21.6514 21.1625 22.013 21.7346C22.3745 22.3066 22.8872 22.7802 23.5008 23.109C24.1144 23.4378 24.808 23.6104 25.5136 23.6101V23.5725Z" fill="#FD5A2F"/>
<path d="M38.7912 22.8672C38.8033 23.0834 38.8033 23.3 38.7912 23.5161C38.9824 23.5447 39.1754 23.5604 39.3689 23.5631H39.5582C40.2606 23.5278 40.9414 23.3213 41.5343 22.9638C42.1271 22.6063 42.6118 22.1099 42.9412 21.5231C43.2705 20.9362 43.4333 20.2788 43.4137 19.6149C43.3941 18.9511 43.1927 18.3033 42.8292 17.7347C42.4657 17.1661 41.9525 16.696 41.3394 16.3703C40.7264 16.0445 40.0345 15.8742 39.331 15.8759C38.6276 15.8775 37.9366 16.0511 37.3253 16.3798C36.714 16.7084 36.2032 17.1809 35.8428 17.7513C36.7443 18.307 37.4856 19.0653 38.0002 19.9582C38.5148 20.8511 38.7866 21.8507 38.7912 22.8672V22.8672Z" fill="#FD5A2F"/>
<path d="M32.2572 27.0803C34.7163 27.0803 36.7097 25.1982 36.7097 22.8766C36.7097 20.5549 34.7163 18.6729 32.2572 18.6729C29.7982 18.6729 27.8047 20.5549 27.8047 22.8766C27.8047 25.1982 29.7982 27.0803 32.2572 27.0803Z" fill="#FD5A2F"/>
<path d="M32.4963 29.3186C31.1954 29.269 29.8974 29.4684 28.6803 29.9048C27.4632 30.3411 26.3521 31.0055 25.4141 31.8578L25.165 32.1211V38.074C25.1689 38.2679 25.2132 38.4592 25.2954 38.637C25.3776 38.8147 25.4961 38.9754 25.6441 39.1099C25.7921 39.2444 25.9667 39.35 26.158 39.4208C26.3493 39.4915 26.5534 39.526 26.7588 39.5223H38.2039C38.4092 39.526 38.6134 39.4915 38.8046 39.4208C38.9959 39.35 39.1705 39.2444 39.3185 39.1099C39.4665 38.9754 39.585 38.8147 39.6672 38.637C39.7494 38.4592 39.7937 38.2679 39.7976 38.074V32.1399L39.5585 31.8578C38.6265 31.0028 37.5194 30.3367 36.305 29.9C35.0906 29.4634 33.7945 29.2656 32.4963 29.3186V29.3186Z" fill="#FD5A2F"/>
</svg>
