<svg width="57" height="54" viewBox="0 0 57 54" fill="none" xmlns="http://www.w3.org/2000/svg">
<rect width="56.9194" height="53.739" rx="9" fill="white"/>
<path d="M22.7312 25.2285H21.8646C20.682 25.1881 19.5033 25.3777 18.4015 25.7853C17.2997 26.193 16.2984 26.8101 15.4598 27.5984L15.2207 27.8617V35.6485H19.2847V31.2284L19.8326 30.6454L20.0816 30.3726C21.3785 29.1148 22.993 28.1892 24.7732 27.683C23.8819 27.0427 23.1789 26.1977 22.7312 25.2285Z" fill="#FD5A2F"/>
<path d="M41.9955 27.57C41.1568 26.7818 40.1555 26.1647 39.0538 25.757C37.952 25.3493 36.7732 25.1598 35.5906 25.2001C35.2279 25.2011 34.8655 25.2199 34.5049 25.2566C34.0488 26.1659 33.365 26.9567 32.5127 27.5606C34.4132 28.057 36.1349 29.0323 37.4931 30.3819L37.7422 30.6452L38.2801 31.2283V35.6577H42.2046V27.8334L41.9955 27.57Z" fill="#FD5A2F"/>
<path d="M21.8348 23.3946H22.1436C22.0002 22.2315 22.2163 21.0541 22.766 20.0044C23.3157 18.9548 24.1755 18.0778 25.2415 17.4793C24.8551 16.922 24.3219 16.4689 23.6944 16.1645C23.0668 15.8601 22.3662 15.7149 21.6613 15.7429C20.9563 15.771 20.2712 15.9714 19.673 16.3245C19.0747 16.6777 18.5839 17.1715 18.2485 17.7575C17.9131 18.3436 17.7447 19.0018 17.7597 19.6678C17.7747 20.3338 17.9727 20.9847 18.3342 21.5567C18.6958 22.1288 19.2085 22.6024 19.8221 22.9311C20.4357 23.2599 21.1293 23.4326 21.8348 23.4322V23.3946Z" fill="#FD5A2F"/>
<path d="M35.1125 22.6891C35.1246 22.9053 35.1246 23.1219 35.1125 23.338C35.3036 23.3666 35.4967 23.3823 35.6902 23.385H35.8795C36.5819 23.3497 37.2627 23.1432 37.8556 22.7857C38.4484 22.4282 38.9331 21.9318 39.2625 21.345C39.5918 20.7581 39.7546 20.1007 39.735 19.4368C39.7154 18.773 39.514 18.1252 39.1505 17.5566C38.787 16.988 38.2737 16.5179 37.6607 16.1922C37.0477 15.8664 36.3558 15.6961 35.6523 15.6978C34.9489 15.6994 34.2578 15.873 33.6466 16.2017C33.0353 16.5303 32.5245 17.0028 32.1641 17.5732C33.0656 18.1289 33.8069 18.8872 34.3215 19.7801C34.8361 20.673 35.1079 21.6726 35.1125 22.6891Z" fill="#FD5A2F"/>
<path d="M28.5785 26.9023C31.0376 26.9023 33.031 25.0203 33.031 22.6986C33.031 20.3769 31.0376 18.4949 28.5785 18.4949C26.1194 18.4949 24.126 20.3769 24.126 22.6986C24.126 25.0203 26.1194 26.9023 28.5785 26.9023Z" fill="#FD5A2F"/>
<path d="M28.8176 29.1405C27.5167 29.0909 26.2187 29.2903 25.0016 29.7267C23.7845 30.163 22.6734 30.8274 21.7354 31.6797L21.4863 31.943V37.8959C21.4902 38.0898 21.5345 38.2811 21.6167 38.4589C21.6989 38.6366 21.8174 38.7973 21.9654 38.9318C22.1134 39.0663 22.288 39.1719 22.4793 39.2427C22.6705 39.3134 22.8747 39.3479 23.0801 39.3442H34.5251C34.7305 39.3479 34.9347 39.3134 35.1259 39.2427C35.3172 39.1719 35.4918 39.0663 35.6398 38.9318C35.7878 38.7973 35.9063 38.6366 35.9885 38.4589C36.0707 38.2811 36.115 38.0898 36.1189 37.8959V31.9618L35.8798 31.6797C34.9478 30.8247 33.8407 30.1586 32.6263 29.7219C31.4119 29.2853 30.1158 29.0875 28.8176 29.1405Z" fill="#FD5A2F"/>
</svg>
