<svg width="36" height="25" viewBox="0 0 36 25" fill="none" xmlns="http://www.w3.org/2000/svg">
<path d="M35.2523 4.66368C35.0501 3.94245 34.6563 3.28949 34.1126 2.7742C33.5537 2.24307 32.8686 1.86314 32.122 1.67027C29.328 0.933823 18.1339 0.933823 18.1339 0.933823C13.4673 0.880728 8.80176 1.11425 4.16372 1.63308C3.41714 1.8402 2.73332 2.22861 2.17308 2.76379C1.6226 3.29343 1.22388 3.94657 1.01559 4.66219C0.515239 7.35766 0.272135 10.0946 0.289553 12.836C0.2717 15.575 0.514208 18.311 1.01559 21.0099C1.21941 21.7225 1.61665 22.3727 2.16861 22.8979C2.72058 23.423 3.40793 23.8024 4.16372 24.0033C6.99496 24.7382 18.1339 24.7382 18.1339 24.7382C22.8065 24.7914 27.478 24.5579 32.122 24.039C32.8686 23.8461 33.5537 23.4662 34.1126 22.935C34.6561 22.4199 35.0494 21.7668 35.2508 21.0456C35.7642 18.3511 36.0138 15.6131 35.9962 12.8702C36.0348 10.1158 35.7855 7.36483 35.2523 4.66219V4.66368ZM14.5752 17.9302V7.74337L23.8887 12.8375L14.5752 17.9302Z" fill="#2F2FFF"/>
</svg>
