<svg width="58" height="55" viewBox="0 0 58 55" fill="none" xmlns="http://www.w3.org/2000/svg">
<rect x="0.22168" y="0.950195" width="56.9194" height="53.739" rx="9" fill="white"/>
<path d="M25.6375 25.737H24.7709C23.5883 25.6967 22.4095 25.8862 21.3077 26.2939C20.2059 26.7015 19.2047 27.3187 18.366 28.1069L18.127 28.3702V36.157H22.191V31.737L22.7388 31.1539L22.9879 30.8812C24.2847 29.6233 25.8992 28.6978 27.6795 28.1915C26.7882 27.5512 26.0852 26.7063 25.6375 25.737V25.737Z" fill="#FD5A2F"/>
<path d="M44.9017 28.0786C44.0631 27.2903 43.0618 26.6732 41.96 26.2656C40.8582 25.8579 39.6795 25.6683 38.4969 25.7087C38.1342 25.7097 37.7718 25.7285 37.4111 25.7651C36.955 26.6744 36.2713 27.4652 35.4189 28.0692C37.3195 28.5656 39.0411 29.5408 40.3994 30.8905L40.6484 31.1538L41.1863 31.7369V36.1663H45.1109V28.3419L44.9017 28.0786Z" fill="#FD5A2F"/>
<path d="M24.7411 23.9032H25.0499C24.9064 22.7401 25.1226 21.5626 25.6723 20.513C26.222 19.4633 27.0817 18.5863 28.1477 17.9878C27.7613 17.4305 27.2282 16.9775 26.6006 16.6731C25.973 16.3687 25.2724 16.2234 24.5675 16.2515C23.8626 16.2795 23.1774 16.4799 22.5792 16.8331C21.981 17.1862 21.4901 17.68 21.1547 18.2661C20.8193 18.8521 20.6509 19.5104 20.666 20.1764C20.681 20.8424 20.879 21.4932 21.2405 22.0653C21.602 22.6373 22.1147 23.1109 22.7283 23.4397C23.342 23.7684 24.0355 23.9411 24.7411 23.9408V23.9032Z" fill="#FD5A2F"/>
<path d="M38.0187 23.1977C38.0308 23.4138 38.0308 23.6304 38.0187 23.8466C38.2099 23.8752 38.403 23.8909 38.5965 23.8936H38.7857C39.4882 23.8582 40.169 23.6517 40.7618 23.2942C41.3547 22.9367 41.8393 22.4404 42.1687 21.8535C42.4981 21.2667 42.6608 20.6093 42.6412 19.9454C42.6216 19.2815 42.4202 18.6337 42.0567 18.0651C41.6932 17.4965 41.18 17.0264 40.567 16.7007C39.9539 16.375 39.262 16.2046 38.5586 16.2063C37.8551 16.208 37.1641 16.3816 36.5528 16.7102C35.9415 17.0389 35.4308 17.5114 35.0703 18.0817C35.9719 18.6374 36.7132 19.3958 37.2278 20.2887C37.7424 21.1816 38.0142 22.1811 38.0187 23.1977V23.1977Z" fill="#FD5A2F"/>
<path d="M31.4848 27.4109C33.9438 27.4109 35.9373 25.5288 35.9373 23.2071C35.9373 20.8855 33.9438 19.0034 31.4848 19.0034C29.0257 19.0034 27.0322 20.8855 27.0322 23.2071C27.0322 25.5288 29.0257 27.4109 31.4848 27.4109Z" fill="#FD5A2F"/>
<path d="M31.7238 29.6491C30.423 29.5995 29.1249 29.7989 27.9078 30.2352C26.6907 30.6716 25.5797 31.3359 24.6416 32.1882L24.3926 32.4515V38.4045C24.3965 38.5984 24.4408 38.7897 24.523 38.9674C24.6052 39.1451 24.7237 39.3058 24.8717 39.4403C25.0197 39.5748 25.1943 39.6805 25.3855 39.7512C25.5768 39.822 25.7809 39.8565 25.9863 39.8527H37.4314C37.6368 39.8565 37.8409 39.822 38.0322 39.7512C38.2234 39.6805 38.398 39.5748 38.546 39.4403C38.6941 39.3058 38.8125 39.1451 38.8947 38.9674C38.9769 38.7897 39.0213 38.5984 39.0251 38.4045V32.4703L38.7861 32.1882C37.8541 31.3333 36.7469 30.6671 35.5325 30.2305C34.3181 29.7938 33.0221 29.596 31.7238 29.6491V29.6491Z" fill="#FD5A2F"/>
</svg>
