<svg width="21" height="15" viewBox="0 0 21 15" fill="none" xmlns="http://www.w3.org/2000/svg">
<path d="M20.2448 2.54464C20.129 2.13196 19.9036 1.75835 19.5924 1.46351C19.2724 1.1596 18.8802 0.942214 18.4529 0.831857C16.8535 0.410471 10.4457 0.410471 10.4457 0.410471C7.77433 0.380091 5.10364 0.51371 2.44869 0.810575C2.02132 0.929085 1.62988 1.15133 1.30918 1.45755C0.994072 1.76061 0.76583 2.13432 0.646599 2.54379C0.360184 4.0861 0.221023 5.65212 0.230994 7.22074C0.220775 8.78795 0.359593 10.3535 0.646599 11.8977C0.763275 12.3055 0.990665 12.6775 1.30663 12.978C1.62259 13.2785 2.01605 13.4956 2.44869 13.6105C4.06938 14.031 10.4457 14.031 10.4457 14.031C13.1204 14.0614 15.7945 13.9278 18.4529 13.6309C18.8802 13.5206 19.2724 13.3032 19.5924 12.9993C19.9035 12.7045 20.1286 12.3308 20.2439 11.9181C20.5378 10.3764 20.6807 8.80974 20.6706 7.24032C20.6927 5.66426 20.55 4.0902 20.2448 2.54379V2.54464ZM8.40853 10.1355V4.3068L13.7399 7.22159L8.40853 10.1355Z" fill="white"/>
</svg>
