<svg width="100" height="100" viewBox="0 0 100 100" fill="none" xmlns="http://www.w3.org/2000/svg">
<rect width="100" height="100" rx="9" fill="white"/>
<path d="M38.9999 47.245H37.4774C35.3998 47.1699 33.3288 47.5226 31.3931 48.2812C29.4574 49.0399 27.6983 50.1882 26.2249 51.655L25.8049 52.145V66.635H32.9449V58.41L33.9074 57.325L34.3449 56.8175C36.6233 54.4769 39.4598 52.7545 42.5874 51.8125C41.0215 50.621 39.7865 49.0486 38.9999 47.245Z" fill="#FD5A2F"/>
<path d="M72.8451 51.6025C71.3717 50.1357 69.6125 48.9874 67.6769 48.2288C65.7412 47.4701 63.6702 47.1174 61.5926 47.1925C60.9553 47.1943 60.3186 47.2294 59.6851 47.2975C58.8837 48.9896 57.6825 50.4611 56.1851 51.585C59.524 52.5088 62.5487 54.3236 64.9351 56.835L65.3726 57.325L66.3176 58.41V66.6525H73.2126V52.0925L72.8451 51.6025Z" fill="#FD5A2F"/>
<path d="M37.425 43.8325H37.9675C37.7155 41.6682 38.0952 39.4772 39.061 37.5239C40.0267 35.5707 41.5372 33.9387 43.41 32.825C42.7311 31.7879 41.7945 30.9448 40.6919 30.3784C39.5893 29.812 38.3585 29.5417 37.1201 29.5939C35.8816 29.6461 34.6779 30.019 33.6269 30.6762C32.5758 31.3333 31.7135 32.2522 31.1242 33.3428C30.535 34.4333 30.2391 35.6582 30.2655 36.8975C30.292 38.1368 30.6398 39.348 31.2749 40.4125C31.9101 41.477 32.8108 42.3583 33.8889 42.9701C34.967 43.5818 36.1854 43.9031 37.425 43.9025V43.8325Z" fill="#FD5A2F"/>
<path d="M60.7525 42.52C60.7738 42.9222 60.7738 43.3253 60.7525 43.7275C61.0883 43.7807 61.4275 43.81 61.7675 43.815H62.1C63.3341 43.7492 64.5302 43.3649 65.5717 42.6997C66.6133 42.0344 67.4648 41.1108 68.0434 40.0187C68.6221 38.9267 68.9081 37.7034 68.8736 36.468C68.8391 35.2326 68.4854 34.0272 67.8468 32.9691C67.2081 31.911 66.3064 31.0363 65.2294 30.4302C64.1524 29.824 62.9368 29.507 61.7009 29.5102C60.465 29.5133 59.251 29.8363 58.1771 30.4479C57.1031 31.0595 56.2058 31.9387 55.5725 33C57.1564 34.0341 58.4588 35.4453 59.3629 37.1068C60.267 38.7684 60.7445 40.6284 60.7525 42.52Z" fill="#FD5A2F"/>
<path d="M49.2725 50.36C53.5927 50.36 57.095 46.8577 57.095 42.5375C57.095 38.2172 53.5927 34.715 49.2725 34.715C44.9522 34.715 41.45 38.2172 41.45 42.5375C41.45 46.8577 44.9522 50.36 49.2725 50.36Z" fill="#FD5A2F"/>
<path d="M49.6925 54.525C47.4071 54.4327 45.1266 54.8037 42.9883 55.6157C40.85 56.4277 38.8981 57.6639 37.25 59.25L36.8125 59.74V70.8175C36.8193 71.1783 36.8972 71.5342 37.0416 71.865C37.186 72.1957 37.3942 72.4947 37.6542 72.745C37.9142 72.9953 38.221 73.1919 38.557 73.3235C38.893 73.4552 39.2517 73.5194 39.6125 73.5125H59.72C60.0808 73.5194 60.4395 73.4552 60.7755 73.3235C61.1115 73.1919 61.4183 72.9953 61.6783 72.745C61.9383 72.4947 62.1465 72.1957 62.2909 71.865C62.4353 71.5342 62.5132 71.1783 62.52 70.8175V59.775L62.1 59.25C60.4626 57.6591 58.5175 56.4194 56.3839 55.6069C54.2504 54.7944 51.9734 54.4262 49.6925 54.525Z" fill="#FD5A2F"/>
</svg>
