<svg width="36" height="25" viewBox="0 0 36 25" fill="none" xmlns="http://www.w3.org/2000/svg">
<path d="M35.2522 4.66368C35.05 3.94245 34.6562 3.28949 34.1126 2.7742C33.5536 2.24307 32.8685 1.86314 32.1219 1.67027C29.3279 0.933823 18.1339 0.933823 18.1339 0.933823C13.4672 0.880728 8.80169 1.11425 4.16366 1.63308C3.41708 1.8402 2.73326 2.22861 2.17302 2.76379C1.62254 3.29343 1.22382 3.94657 1.01553 4.66219C0.515178 7.35766 0.272074 10.0946 0.289492 12.836C0.271639 15.575 0.514147 18.311 1.01553 21.0099C1.21935 21.7225 1.61659 22.3727 2.16855 22.8979C2.72052 23.423 3.40787 23.8024 4.16366 24.0033C6.9949 24.7382 18.1339 24.7382 18.1339 24.7382C22.8065 24.7914 27.4779 24.5579 32.1219 24.039C32.8685 23.8461 33.5536 23.4662 34.1126 22.935C34.656 22.4199 35.0494 21.7668 35.2507 21.0456C35.7641 18.3511 36.0138 15.6131 35.9961 12.8702C36.0347 10.1158 35.7854 7.36483 35.2522 4.66219V4.66368ZM14.5751 17.9302V7.74337L23.8886 12.8375L14.5751 17.9302Z" fill="#2F2FFF"/>
</svg>
