<svg width="20" height="20" viewBox="0 0 20 20" fill="none" xmlns="http://www.w3.org/2000/svg">
<path d="M19.8967 6.00235C19.886 5.1952 19.7347 4.39608 19.4497 3.64073C19.2025 3.00359 18.8249 2.42496 18.3412 1.9418C17.8574 1.45864 17.278 1.08158 16.6401 0.834705C15.8935 0.554803 15.1048 0.403455 14.3075 0.387106C13.281 0.34128 12.9556 0.328491 10.3498 0.328491C7.74409 0.328491 7.4101 0.328491 6.39107 0.387106C5.59415 0.403575 4.8058 0.554921 4.05956 0.834705C3.42153 1.08141 2.84208 1.45841 2.35829 1.94159C1.8745 2.42477 1.49702 3.00349 1.25001 3.64073C0.969199 4.3858 0.817989 5.17334 0.802919 5.96931C0.757036 6.99559 0.743164 7.32064 0.743164 9.92311C0.743164 12.5256 0.743164 12.8581 0.802919 13.8769C0.818925 14.6741 0.969379 15.4606 1.25001 16.2076C1.49744 16.8447 1.8752 17.4232 2.35915 17.9061C2.8431 18.3891 3.4226 18.7659 4.06063 19.0126C4.80483 19.3037 5.59331 19.4659 6.39214 19.4921C7.41971 19.538 7.74516 19.5518 10.3509 19.5518C12.9566 19.5518 13.2906 19.5518 14.3097 19.4921C15.1069 19.4765 15.8957 19.3255 16.6422 19.0456C17.28 18.7985 17.8592 18.4213 18.3429 17.9382C18.8267 17.455 19.2043 16.8766 19.4518 16.2396C19.7324 15.4936 19.8829 14.7071 19.8989 13.9089C19.9448 12.8837 19.9586 12.5586 19.9586 9.95508C19.9565 7.35261 19.9565 7.02224 19.8967 6.00235ZM10.3434 14.8446C7.61818 14.8446 5.41045 12.6396 5.41045 9.91778C5.41045 7.19595 7.61818 4.99099 10.3434 4.99099C11.6517 4.99099 12.9065 5.51006 13.8316 6.43401C14.7567 7.35796 15.2764 8.61111 15.2764 9.91778C15.2764 11.2244 14.7567 12.4776 13.8316 13.4015C12.9065 14.3255 11.6517 14.8446 10.3434 14.8446ZM15.4727 5.95759C15.3217 5.95773 15.172 5.92811 15.0324 5.87043C14.8928 5.81274 14.7659 5.72812 14.6591 5.62142C14.5522 5.51471 14.4675 5.388 14.4097 5.24856C14.352 5.10911 14.3223 4.95966 14.3225 4.80875C14.3225 4.65795 14.3522 4.50863 14.41 4.36931C14.4678 4.22999 14.5525 4.10341 14.6592 3.99678C14.766 3.89015 14.8927 3.80556 15.0322 3.74785C15.1717 3.69015 15.3212 3.66044 15.4722 3.66044C15.6232 3.66044 15.7727 3.69015 15.9122 3.74785C16.0517 3.80556 16.1784 3.89015 16.2852 3.99678C16.392 4.10341 16.4767 4.22999 16.5344 4.36931C16.5922 4.50863 16.622 4.65795 16.622 4.80875C16.622 5.44392 16.1076 5.95759 15.4727 5.95759Z" fill="#2F2FFF"/>
<path d="M10.343 13.1176C12.1127 13.1176 13.5474 11.6848 13.5474 9.91726C13.5474 8.14976 12.1127 6.71692 10.343 6.71692C8.57331 6.71692 7.13867 8.14976 7.13867 9.91726C7.13867 11.6848 8.57331 13.1176 10.343 13.1176Z" fill="#2F2FFF"/>
</svg>
