<svg width="57" height="54" viewBox="0 0 57 54" fill="none" xmlns="http://www.w3.org/2000/svg">
<rect width="56.9194" height="53.739" rx="9" fill="white"/>
<path d="M22.7302 25.2282H21.8636C20.681 25.1879 19.5023 25.3774 18.4005 25.7851C17.2987 26.1928 16.2974 26.8099 15.4588 27.5981L15.2197 27.8614V35.6482H19.2838V31.2282L19.8316 30.6451L20.0806 30.3724C21.3775 29.1146 22.992 28.189 24.7722 27.6827C23.8809 27.0424 23.178 26.1975 22.7302 25.2282Z" fill="#FD5A2F"/>
<path d="M41.9945 27.5698C41.1559 26.7815 40.1546 26.1644 39.0528 25.7568C37.951 25.3491 36.7722 25.1595 35.5896 25.1999C35.2269 25.2009 34.8645 25.2197 34.5039 25.2563C34.0478 26.1656 33.364 26.9564 32.5117 27.5604C34.4122 28.0568 36.1339 29.0321 37.4922 30.3817L37.7412 30.645L38.2791 31.2281V35.6575H42.2037V27.8331L41.9945 27.5698Z" fill="#FD5A2F"/>
<path d="M21.8339 23.3944H22.1427C21.9992 22.2313 22.2153 21.0539 22.765 20.0042C23.3147 18.9545 24.1745 18.0775 25.2405 17.4791C24.8541 16.9217 24.321 16.4687 23.6934 16.1643C23.0658 15.8599 22.3652 15.7146 21.6603 15.7427C20.9554 15.7707 20.2702 15.9711 19.672 16.3243C19.0737 16.6774 18.5829 17.1712 18.2475 17.7573C17.9121 18.3433 17.7437 19.0016 17.7587 19.6676C17.7738 20.3336 17.9717 20.9844 18.3333 21.5565C18.6948 22.1285 19.2075 22.6021 19.8211 22.9309C20.4348 23.2597 21.1283 23.4323 21.8339 23.432V23.3944Z" fill="#FD5A2F"/>
<path d="M35.1115 22.6889C35.1236 22.905 35.1236 23.1216 35.1115 23.3378C35.3027 23.3664 35.4957 23.3821 35.6892 23.3848H35.8785C36.581 23.3494 37.2617 23.1429 37.8546 22.7854C38.4474 22.4279 38.9321 21.9316 39.2615 21.3447C39.5908 20.7579 39.7536 20.1005 39.734 19.4366C39.7144 18.7727 39.513 18.1249 39.1495 17.5563C38.786 16.9877 38.2728 16.5177 37.6597 16.1919C37.0467 15.8662 36.3548 15.6959 35.6513 15.6975C34.9479 15.6992 34.2569 15.8728 33.6456 16.2015C33.0343 16.5301 32.5236 17.0026 32.1631 17.5729C33.0646 18.1287 33.806 18.887 34.3206 19.7799C34.8352 20.6728 35.1069 21.6723 35.1115 22.6889Z" fill="#FD5A2F"/>
<path d="M28.5775 26.9021C31.0366 26.9021 33.03 25.02 33.03 22.6984C33.03 20.3767 31.0366 18.4946 28.5775 18.4946C26.1185 18.4946 24.125 20.3767 24.125 22.6984C24.125 25.02 26.1185 26.9021 28.5775 26.9021Z" fill="#FD5A2F"/>
<path d="M28.8166 29.1403C27.5157 29.0907 26.2177 29.2901 25.0006 29.7264C23.7835 30.1628 22.6725 30.8271 21.7344 31.6794L21.4854 31.9428V37.8957C21.4892 38.0896 21.5335 38.2809 21.6158 38.4586C21.698 38.6363 21.8164 38.797 21.9644 38.9315C22.1124 39.066 22.2871 39.1717 22.4783 39.2424C22.6696 39.3132 22.8737 39.3477 23.0791 39.344H34.5242C34.7296 39.3477 34.9337 39.3132 35.125 39.2424C35.3162 39.1717 35.4908 39.066 35.6388 38.9315C35.7868 38.797 35.9053 38.6363 35.9875 38.4586C36.0697 38.2809 36.114 38.0896 36.1179 37.8957V31.9616L35.8789 31.6794C34.9468 30.8245 33.8397 30.1583 32.6253 29.7217C31.4109 29.2851 30.1148 29.0872 28.8166 29.1403Z" fill="#FD5A2F"/>
</svg>
