<svg width="100" height="100" viewBox="0 0 100 100" fill="none" xmlns="http://www.w3.org/2000/svg">
<rect width="100" height="100" rx="9" fill="white"/>
<path d="M36.9001 25.3C35.2292 25.3 33.6268 25.9638 32.4453 27.1453C31.2638 28.3268 30.6001 29.9292 30.6001 31.6V69.4C30.6001 71.0709 31.2638 72.6733 32.4453 73.8548C33.6268 75.0363 35.2292 75.7 36.9001 75.7H50.3096C49.5074 74.7284 48.8134 73.6721 48.2401 72.55H36.9001C36.0647 72.55 35.2635 72.2182 34.6727 71.6274C34.082 71.0367 33.7501 70.2355 33.7501 69.4H47.0021C46.1597 66.4326 46.1248 63.294 46.9011 60.3086C47.6774 57.3231 49.2367 54.5991 51.4179 52.4178C53.5991 50.2366 56.3232 48.6773 59.3086 47.901C62.2941 47.1247 65.4326 47.1596 68.4001 48.0021V31.6C68.4001 29.9292 67.7364 28.3268 66.5549 27.1453C65.3734 25.9638 63.771 25.3 62.1001 25.3H36.9001ZM39.2626 33.175H59.7376C60.3642 33.175 60.9651 33.424 61.4081 33.867C61.8512 34.3101 62.1001 34.911 62.1001 35.5375C62.1001 36.1641 61.8512 36.765 61.4081 37.2081C60.9651 37.6511 60.3642 37.9 59.7376 37.9H39.2626C38.636 37.9 38.0351 37.6511 37.5921 37.2081C37.149 36.765 36.9001 36.1641 36.9001 35.5375C36.9001 34.911 37.149 34.3101 37.5921 33.867C38.0351 33.424 38.636 33.175 39.2626 33.175Z" fill="#FD5A2F"/>
<path d="M77.85 64.675C77.85 68.4344 76.3566 72.0399 73.6982 74.6982C71.0399 77.3566 67.4344 78.85 63.675 78.85C59.9156 78.85 56.3101 77.3566 53.6518 74.6982C50.9934 72.0399 49.5 68.4344 49.5 64.675C49.5 60.9156 50.9934 57.3101 53.6518 54.6518C56.3101 51.9934 59.9156 50.5 63.675 50.5C67.4344 50.5 71.0399 51.9934 73.6982 54.6518C76.3566 57.3101 77.85 60.9156 77.85 64.675V64.675ZM62.163 58.4821C61.9587 58.3418 61.7214 58.2573 61.4745 58.2369C61.2275 58.2164 60.9795 58.2608 60.7549 58.3655C60.5717 58.4462 60.4058 58.5618 60.2667 58.7057C59.9733 59.0064 59.8093 59.4101 59.8099 59.8303V69.5166C59.808 69.7253 59.8474 69.9325 59.9258 70.126C60.0042 70.3195 60.12 70.4956 60.2667 70.6443C60.4105 70.7872 60.5778 70.9044 60.7612 70.9907C61.0809 71.1372 61.4435 71.1596 61.7787 71.0537C61.9239 71.0059 62.0617 70.9381 62.1882 70.8522L69.4206 65.9161C69.6407 65.7711 69.8179 65.5699 69.934 65.3333C70.0537 65.0951 70.1153 64.8318 70.1136 64.5652C70.112 64.2985 70.0472 64.0361 69.9246 63.7993C69.8014 63.5662 69.6203 63.3687 69.3985 63.226L62.163 58.4821V58.4821Z" fill="#FD5A2F"/>
</svg>
