<svg width="57" height="54" viewBox="0 0 57 54" fill="none" xmlns="http://www.w3.org/2000/svg">
<rect width="56.9194" height="53.739" rx="9" fill="white"/>
<path d="M23.9529 25.1787H23.0863C21.9037 25.1383 20.7249 25.3278 19.6232 25.7355C18.5214 26.1432 17.5201 26.7603 16.6814 27.5485L16.4424 27.8119V35.5986H20.5064V31.1786L21.0543 30.5955L21.3033 30.3228C22.6001 29.065 24.2147 28.1394 25.9949 27.6332C25.1036 26.9929 24.4006 26.1479 23.9529 25.1787Z" fill="#FD5A2F"/>
<path d="M43.2172 27.5202C42.3785 26.732 41.3772 26.1149 40.2754 25.7072C39.1737 25.2995 37.9949 25.11 36.8123 25.1503C36.4496 25.1513 36.0872 25.1701 35.7266 25.2068C35.2704 26.1161 34.5867 26.9069 33.7344 27.5108C35.6349 28.0072 37.3565 28.9825 38.7148 30.3321L38.9638 30.5954L39.5017 31.1785V35.6079H43.4263V27.7835L43.2172 27.5202Z" fill="#FD5A2F"/>
<path d="M23.0565 23.3447H23.3653C23.2218 22.1816 23.438 21.0042 23.9877 19.9545C24.5374 18.9049 25.3971 18.0279 26.4632 17.4294C26.0767 16.872 25.5436 16.419 24.916 16.1146C24.2884 15.8102 23.5879 15.6649 22.8829 15.693C22.178 15.721 21.4929 15.9214 20.8946 16.2746C20.2964 16.6277 19.8055 17.1215 19.4702 17.7076C19.1348 18.2937 18.9664 18.9519 18.9814 19.6179C18.9964 20.2839 19.1944 20.9348 19.5559 21.5068C19.9175 22.0789 20.4301 22.5524 21.0438 22.8812C21.6574 23.21 22.351 23.3826 23.0565 23.3823V23.3447Z" fill="#FD5A2F"/>
<path d="M36.3342 22.6394C36.3463 22.8556 36.3463 23.0722 36.3342 23.2883C36.5253 23.3169 36.7184 23.3327 36.9119 23.3354H37.1012C37.8036 23.3 38.4844 23.0935 39.0772 22.736C39.6701 22.3785 40.1548 21.8821 40.4841 21.2953C40.8135 20.7084 40.9763 20.0511 40.9567 19.3872C40.937 18.7233 40.7357 18.0755 40.3722 17.5069C40.0087 16.9383 39.4954 16.4682 38.8824 16.1425C38.2694 15.8167 37.5774 15.6464 36.874 15.6481C36.1705 15.6498 35.4795 15.8234 34.8682 16.152C34.2569 16.4807 33.7462 16.9532 33.3857 17.5235C34.2873 18.0792 35.0286 18.8375 35.5432 19.7305C36.0578 20.6234 36.3296 21.6229 36.3342 22.6394Z" fill="#FD5A2F"/>
<path d="M29.8002 26.8525C32.2592 26.8525 34.2527 24.9705 34.2527 22.6488C34.2527 20.3271 32.2592 18.4451 29.8002 18.4451C27.3411 18.4451 25.3477 20.3271 25.3477 22.6488C25.3477 24.9705 27.3411 26.8525 29.8002 26.8525Z" fill="#FD5A2F"/>
<path d="M30.0392 29.0908C28.7384 29.0412 27.4404 29.2406 26.2232 29.677C25.0061 30.1134 23.8951 30.7777 22.957 31.63L22.708 31.8933V37.8462C22.7119 38.0402 22.7562 38.2314 22.8384 38.4092C22.9206 38.5869 23.0391 38.7476 23.1871 38.8821C23.3351 39.0166 23.5097 39.1222 23.701 39.193C23.8922 39.2638 24.0964 39.2983 24.3018 39.2945H35.7468C35.9522 39.2983 36.1564 39.2638 36.3476 39.193C36.5389 39.1222 36.7135 39.0166 36.8615 38.8821C37.0095 38.7476 37.128 38.5869 37.2102 38.4092C37.2924 38.2314 37.3367 38.0402 37.3406 37.8462V31.9121L37.1015 31.63C36.1695 30.7751 35.0623 30.1089 33.8479 29.6722C32.6335 29.2356 31.3375 29.0378 30.0392 29.0908Z" fill="#FD5A2F"/>
</svg>
