<svg width="58" height="55" viewBox="0 0 58 55" fill="none" xmlns="http://www.w3.org/2000/svg">
<rect x="0.222656" y="0.950439" width="56.9194" height="53.739" rx="9" fill="white"/>
<path d="M31.6384 25.737H30.7718C29.5892 25.6967 28.4105 25.8862 27.3087 26.2939C26.2069 26.7015 25.2056 27.3187 24.367 28.1069L24.1279 28.3702V36.157H28.192V31.737L28.7398 31.1539L28.9888 30.8812C30.2857 29.6233 31.9002 28.6978 33.6804 28.1915C32.7891 27.5512 32.0862 26.7063 31.6384 25.737Z" fill="#FD5A2F"/>
<path d="M50.9027 28.0786C50.0641 27.2903 49.0628 26.6732 47.961 26.2656C46.8592 25.8579 45.6804 25.6683 44.4978 25.7087C44.1351 25.7097 43.7727 25.7285 43.4121 25.7651C42.956 26.6744 42.2722 27.4652 41.4199 28.0692C43.3204 28.5656 45.0421 29.5408 46.4004 30.8905L46.6494 31.1538L47.1873 31.7369V36.1663H51.1119V28.3419L50.9027 28.0786Z" fill="#FD5A2F"/>
<path d="M30.7421 23.9032H31.0509C30.9074 22.7401 31.1235 21.5626 31.6733 20.513C32.223 19.4633 33.0827 18.5863 34.1487 17.9878C33.7623 17.4305 33.2292 16.9775 32.6016 16.6731C31.974 16.3687 31.2734 16.2234 30.5685 16.2515C29.8636 16.2795 29.1784 16.4799 28.5802 16.8331C27.9819 17.1862 27.4911 17.68 27.1557 18.2661C26.8203 18.8521 26.6519 19.5104 26.6669 20.1764C26.682 20.8424 26.8799 21.4932 27.2415 22.0653C27.603 22.6373 28.1157 23.1109 28.7293 23.4397C29.343 23.7684 30.0365 23.9411 30.7421 23.9408V23.9032Z" fill="#FD5A2F"/>
<path d="M44.0197 23.1977C44.0318 23.4138 44.0318 23.6304 44.0197 23.8466C44.2109 23.8752 44.4039 23.8909 44.5974 23.8936H44.7867C45.4892 23.8582 46.1699 23.6517 46.7628 23.2942C47.3556 22.9367 47.8403 22.4404 48.1697 21.8535C48.499 21.2667 48.6618 20.6093 48.6422 19.9454C48.6226 19.2815 48.4212 18.6337 48.0577 18.0651C47.6942 17.4965 47.181 17.0264 46.5679 16.7007C45.9549 16.375 45.263 16.2046 44.5595 16.2063C43.8561 16.208 43.1651 16.3816 42.5538 16.7102C41.9425 17.0389 41.4318 17.5114 41.0713 18.0817C41.9728 18.6374 42.7142 19.3958 43.2288 20.2887C43.7434 21.1816 44.0151 22.1811 44.0197 23.1977Z" fill="#FD5A2F"/>
<path d="M37.4857 27.4109C39.9448 27.4109 41.9382 25.5288 41.9382 23.2071C41.9382 20.8855 39.9448 19.0034 37.4857 19.0034C35.0267 19.0034 33.0332 20.8855 33.0332 23.2071C33.0332 25.5288 35.0267 27.4109 37.4857 27.4109Z" fill="#FD5A2F"/>
<path d="M37.7248 29.6491C36.4239 29.5995 35.1259 29.7989 33.9088 30.2352C32.6917 30.6716 31.5807 31.3359 30.6426 32.1882L30.3936 32.4515V38.4045C30.3974 38.5984 30.4418 38.7897 30.524 38.9674C30.6062 39.1451 30.7246 39.3058 30.8726 39.4403C31.0206 39.5748 31.1953 39.6805 31.3865 39.7512C31.5778 39.822 31.7819 39.8565 31.9873 39.8527H43.4324C43.6378 39.8565 43.8419 39.822 44.0332 39.7512C44.2244 39.6805 44.399 39.5748 44.547 39.4403C44.695 39.3058 44.8135 39.1451 44.8957 38.9674C44.9779 38.7897 45.0222 38.5984 45.0261 38.4045V32.4703L44.7871 32.1882C43.855 31.3333 42.7479 30.6671 41.5335 30.2305C40.3191 29.7938 39.023 29.596 37.7248 29.6491Z" fill="#FD5A2F"/>
</svg>
