<svg width="58" height="55" viewBox="0 0 58 55" fill="none" xmlns="http://www.w3.org/2000/svg">
<rect x="0.22168" y="0.950195" width="56.9194" height="53.739" rx="9" fill="white"/>
<path d="M31.6375 25.737H30.7709C29.5883 25.6967 28.4095 25.8862 27.3077 26.2939C26.2059 26.7015 25.2047 27.3187 24.366 28.1069L24.127 28.3702V36.157H28.191V31.737L28.7388 31.1539L28.9879 30.8812C30.2847 29.6233 31.8992 28.6978 33.6795 28.1915C32.7882 27.5512 32.0852 26.7063 31.6375 25.737Z" fill="#FD5A2F"/>
<path d="M50.9017 28.0786C50.0631 27.2903 49.0618 26.6732 47.96 26.2656C46.8582 25.8579 45.6795 25.6683 44.4969 25.7087C44.1342 25.7097 43.7718 25.7285 43.4111 25.7651C42.955 26.6744 42.2713 27.4652 41.4189 28.0692C43.3195 28.5656 45.0411 29.5408 46.3994 30.8905L46.6484 31.1538L47.1863 31.7369V36.1663H51.1109V28.3419L50.9017 28.0786Z" fill="#FD5A2F"/>
<path d="M30.7411 23.9032H31.0499C30.9064 22.7401 31.1226 21.5626 31.6723 20.513C32.222 19.4633 33.0817 18.5863 34.1477 17.9878C33.7613 17.4305 33.2282 16.9775 32.6006 16.6731C31.973 16.3687 31.2724 16.2234 30.5675 16.2515C29.8626 16.2795 29.1774 16.4799 28.5792 16.8331C27.981 17.1862 27.4901 17.68 27.1547 18.2661C26.8193 18.8521 26.6509 19.5104 26.666 20.1764C26.681 20.8424 26.879 21.4932 27.2405 22.0653C27.602 22.6373 28.1147 23.1109 28.7283 23.4397C29.342 23.7684 30.0355 23.9411 30.7411 23.9408V23.9032Z" fill="#FD5A2F"/>
<path d="M44.0187 23.1977C44.0308 23.4138 44.0308 23.6304 44.0187 23.8466C44.2099 23.8752 44.403 23.8909 44.5965 23.8936H44.7857C45.4882 23.8582 46.169 23.6517 46.7618 23.2942C47.3547 22.9367 47.8393 22.4404 48.1687 21.8535C48.4981 21.2667 48.6608 20.6093 48.6412 19.9454C48.6216 19.2815 48.4202 18.6337 48.0567 18.0651C47.6932 17.4965 47.18 17.0264 46.567 16.7007C45.9539 16.375 45.262 16.2046 44.5586 16.2063C43.8551 16.208 43.1641 16.3816 42.5528 16.7102C41.9415 17.0389 41.4308 17.5114 41.0703 18.0817C41.9719 18.6374 42.7132 19.3958 43.2278 20.2887C43.7424 21.1816 44.0142 22.1811 44.0187 23.1977Z" fill="#FD5A2F"/>
<path d="M37.4848 27.4109C39.9438 27.4109 41.9373 25.5288 41.9373 23.2071C41.9373 20.8855 39.9438 19.0034 37.4848 19.0034C35.0257 19.0034 33.0322 20.8855 33.0322 23.2071C33.0322 25.5288 35.0257 27.4109 37.4848 27.4109Z" fill="#FD5A2F"/>
<path d="M37.7238 29.6491C36.423 29.5995 35.1249 29.7989 33.9078 30.2352C32.6907 30.6716 31.5797 31.3359 30.6416 32.1882L30.3926 32.4515V38.4045C30.3965 38.5984 30.4408 38.7897 30.523 38.9674C30.6052 39.1451 30.7237 39.3058 30.8717 39.4403C31.0197 39.5748 31.1943 39.6805 31.3855 39.7512C31.5768 39.822 31.7809 39.8565 31.9863 39.8527H43.4314C43.6368 39.8565 43.8409 39.822 44.0322 39.7512C44.2234 39.6805 44.398 39.5748 44.5461 39.4403C44.694 39.3058 44.8125 39.1451 44.8947 38.9674C44.9769 38.7897 45.0213 38.5984 45.0251 38.4045V32.4703L44.7861 32.1882C43.8541 31.3333 42.7469 30.6671 41.5325 30.2305C40.3181 29.7938 39.0221 29.596 37.7238 29.6491Z" fill="#FD5A2F"/>
</svg>
