<svg width="58" height="55" viewBox="0 0 58 55" fill="none" xmlns="http://www.w3.org/2000/svg">
<rect x="0.994141" y="0.619873" width="56.9194" height="53.739" rx="9" fill="white"/>
<path d="M32.4099 25.4064H31.5433C30.3607 25.3661 29.182 25.5556 28.0802 25.9633C26.9784 26.371 25.9771 26.9881 25.1385 27.7763L24.8994 28.0397V35.8264H28.9635V31.4064L29.5113 30.8233L29.7603 30.5506C31.0572 29.2928 32.6717 28.3672 34.4519 27.861C33.5606 27.2207 32.8577 26.3757 32.4099 25.4064Z" fill="#FD5A2F"/>
<path d="M51.6742 27.748C50.8355 26.9598 49.8343 26.3427 48.7325 25.935C47.6307 25.5273 46.4519 25.3378 45.2693 25.3781C44.9066 25.3791 44.5442 25.3979 44.1836 25.4345C43.7275 26.3439 43.0437 27.1346 42.1914 27.7386C44.0919 28.235 45.8136 29.2103 47.1719 30.5599L47.4209 30.8232L47.9588 31.4063V35.8357H51.8834V28.0113L51.6742 27.748Z" fill="#FD5A2F"/>
<path d="M31.5136 23.5725H31.8223C31.6789 22.4094 31.895 21.232 32.4447 20.1823C32.9944 19.1326 33.8542 18.2556 34.9202 17.6572C34.5338 17.0998 34.0007 16.6468 33.3731 16.3424C32.7455 16.038 32.0449 15.8927 31.34 15.9208C30.635 15.9488 29.9499 16.1492 29.3517 16.5024C28.7534 16.8555 28.2626 17.3493 27.9272 17.9354C27.5918 18.5214 27.4234 19.1797 27.4384 19.8457C27.4535 20.5117 27.6514 21.1625 28.013 21.7346C28.3745 22.3066 28.8872 22.7802 29.5008 23.109C30.1144 23.4378 30.808 23.6104 31.5136 23.6101V23.5725Z" fill="#FD5A2F"/>
<path d="M44.7912 22.8672C44.8033 23.0834 44.8033 23.3 44.7912 23.5161C44.9824 23.5447 45.1754 23.5604 45.3689 23.5631H45.5582C46.2606 23.5278 46.9414 23.3213 47.5343 22.9638C48.1271 22.6063 48.6118 22.1099 48.9412 21.5231C49.2705 20.9362 49.4333 20.2788 49.4137 19.6149C49.3941 18.9511 49.1927 18.3033 48.8292 17.7347C48.4657 17.1661 47.9525 16.696 47.3394 16.3703C46.7264 16.0445 46.0345 15.8742 45.331 15.8759C44.6276 15.8775 43.9366 16.0511 43.3253 16.3798C42.714 16.7084 42.2032 17.1809 41.8428 17.7513C42.7443 18.307 43.4856 19.0653 44.0002 19.9582C44.5148 20.8511 44.7866 21.8507 44.7912 22.8672Z" fill="#FD5A2F"/>
<path d="M38.2572 27.0803C40.7163 27.0803 42.7097 25.1982 42.7097 22.8766C42.7097 20.5549 40.7163 18.6729 38.2572 18.6729C35.7982 18.6729 33.8047 20.5549 33.8047 22.8766C33.8047 25.1982 35.7982 27.0803 38.2572 27.0803Z" fill="#FD5A2F"/>
<path d="M38.4963 29.3186C37.1954 29.269 35.8974 29.4684 34.6803 29.9048C33.4632 30.3411 32.3521 31.0055 31.4141 31.8578L31.165 32.1211V38.074C31.1689 38.2679 31.2132 38.4592 31.2954 38.637C31.3776 38.8147 31.4961 38.9754 31.6441 39.1099C31.7921 39.2444 31.9667 39.35 32.158 39.4208C32.3493 39.4915 32.5534 39.526 32.7588 39.5223H44.2039C44.4092 39.526 44.6134 39.4915 44.8046 39.4208C44.9959 39.35 45.1705 39.2444 45.3185 39.1099C45.4665 38.9754 45.585 38.8147 45.6672 38.637C45.7494 38.4592 45.7937 38.2679 45.7976 38.074V32.1399L45.5585 31.8578C44.6265 31.0028 43.5194 30.3367 42.305 29.9C41.0906 29.4634 39.7945 29.2656 38.4963 29.3186Z" fill="#FD5A2F"/>
</svg>
