<svg width="26" height="18" viewBox="0 0 26 18" fill="none" xmlns="http://www.w3.org/2000/svg">
<path d="M25.4641 3.07119C25.3191 2.55457 25.0366 2.08684 24.6467 1.71774C24.2458 1.33728 23.7544 1.06513 23.219 0.926978C21.2151 0.39945 13.1866 0.39945 13.1866 0.39945C9.83959 0.361417 6.49342 0.528694 3.16696 0.900335C2.6315 1.0487 2.14105 1.32693 1.73924 1.71028C1.34443 2.08967 1.05846 2.55752 0.909075 3.07013C0.550218 5.00093 0.375861 6.96141 0.388354 8.92516C0.375549 10.8871 0.549479 12.847 0.909075 14.7802C1.05526 15.2907 1.34016 15.7564 1.73604 16.1326C2.13192 16.5088 2.6249 16.7805 3.16696 16.9244C5.19756 17.4509 13.1866 17.4509 13.1866 17.4509C16.5378 17.489 19.8883 17.3217 23.219 16.95C23.7544 16.8118 24.2458 16.5397 24.6467 16.1592C25.0365 15.7902 25.3186 15.3224 25.463 14.8058C25.8312 12.8757 26.0103 10.9144 25.9976 8.94967C26.0253 6.97661 25.8465 5.00606 25.4641 3.07013V3.07119ZM10.6342 12.5742V5.27722L17.3139 8.92622L10.6342 12.5742Z" fill="#2F2FFF"/>
</svg>
