<svg width="19" height="13" viewBox="0 0 19 13" fill="none" xmlns="http://www.w3.org/2000/svg">
<path d="M18.6232 2.53125C18.5212 2.15928 18.3227 1.82252 18.0487 1.55676C17.7669 1.28283 17.4215 1.08689 17.0452 0.987416C15.6367 0.607595 9.99383 0.607595 9.99383 0.607595C7.64138 0.580212 5.2895 0.700651 2.95147 0.968233C2.57512 1.07505 2.23041 1.27538 1.94799 1.55139C1.6705 1.82455 1.4695 2.16141 1.3645 2.53048C1.11228 3.92066 0.989729 5.33221 0.99851 6.74611C0.98951 8.15873 1.11176 9.56982 1.3645 10.9617C1.46725 11.3293 1.6675 11.6646 1.94574 11.9354C2.22399 12.2063 2.57048 12.402 2.95147 12.5056C4.37869 12.8846 9.99383 12.8846 9.99383 12.8846C12.3493 12.912 14.7042 12.7916 17.0452 12.524C17.4215 12.4245 17.7669 12.2286 18.0487 11.9546C18.3226 11.6889 18.5209 11.3521 18.6224 10.9801C18.8812 9.5905 19.0071 8.17837 18.9982 6.76375C19.0176 5.34315 18.8919 3.92436 18.6232 2.53048V2.53125ZM8.19987 9.37339V4.11959L12.8948 6.74687L8.19987 9.37339Z" fill="#2F2FFF"/>
</svg>
