<svg width="19" height="12" viewBox="0 0 19 12" fill="none" xmlns="http://www.w3.org/2000/svg">
<path d="M18.6232 2.16839C18.5212 1.81708 18.3227 1.49903 18.0487 1.24804C17.7669 0.989326 17.4215 0.804265 17.0452 0.71032C15.6367 0.351601 9.99383 0.351601 9.99383 0.351601C7.64138 0.325739 5.2895 0.439487 2.95147 0.692203C2.57512 0.793088 2.23041 0.982285 1.94799 1.24296C1.6705 1.50095 1.4695 1.81909 1.3645 2.16766C1.11228 3.48061 0.989729 4.81374 0.99851 6.14908C0.98951 7.48323 1.11176 8.81592 1.3645 10.1305C1.46725 10.4776 1.6675 10.7943 1.94574 11.0501C2.22399 11.3059 2.57048 11.4907 2.95147 11.5886C4.37869 11.9466 9.99383 11.9466 9.99383 11.9466C12.3493 11.9725 14.7042 11.8587 17.0452 11.606C17.4215 11.512 17.7669 11.327 18.0487 11.0682C18.3226 10.8173 18.5209 10.4992 18.6224 10.1479C18.8812 8.83546 19.0071 7.50177 18.9982 6.16575C19.0176 4.82407 18.8919 3.4841 18.6232 2.16766V2.16839ZM8.19987 8.6304V3.66848L12.8948 6.14981L8.19987 8.6304Z" fill="#2F2FFF"/>
</svg>
