<svg width="36" height="25" viewBox="0 0 36 25" fill="none" xmlns="http://www.w3.org/2000/svg">
<path d="M35.2495 4.69962C35.0465 3.97635 34.6511 3.32153 34.1052 2.80478C33.5439 2.27215 32.856 1.89114 32.1064 1.69772C29.3009 0.959181 18.061 0.959181 18.061 0.959181C13.3752 0.905935 8.69059 1.14012 4.03355 1.66042C3.28391 1.86813 2.59728 2.25765 2.03474 2.79434C1.48201 3.32549 1.08165 3.98048 0.87251 4.69813C0.37011 7.40125 0.12601 10.1459 0.1435 12.8952C0.125574 15.6419 0.369075 18.3857 0.87251 21.0922C1.07717 21.8069 1.47603 22.4589 2.03026 22.9856C2.58449 23.5122 3.27466 23.8927 4.03355 24.0941C6.87639 24.8312 18.061 24.8312 18.061 24.8312C22.7528 24.8845 27.4434 24.6503 32.1064 24.1299C32.856 23.9365 33.5439 23.5555 34.1052 23.0229C34.6509 22.5062 35.0459 21.8513 35.248 21.128C35.7635 18.4259 36.0142 15.6801 35.9965 12.9295C36.0352 10.1672 35.7849 7.40844 35.2495 4.69813V4.69962ZM14.4877 18.0038V7.78806L23.8393 12.8967L14.4877 18.0038Z" fill="#2F2FFF"/>
</svg>
