<svg width="22" height="20" viewBox="0 0 22 20" fill="none" xmlns="http://www.w3.org/2000/svg">
<path fill-rule="evenodd" clip-rule="evenodd" d="M8.1719 6.969H12.2573V8.819C12.8458 7.755 14.355 6.799 16.6221 6.799C20.9682 6.799 22 8.917 22 12.803V20H17.6V13.688C17.6 11.475 17.0115 10.227 15.5133 10.227C13.4354 10.227 12.5719 11.572 12.5719 13.687V20H8.1719V6.969V6.969ZM0.627 19.83H5.027V6.799H0.627V19.83V19.83ZM5.6573 2.55C5.65746 2.88528 5.58432 3.21724 5.44213 3.52659C5.29993 3.83594 5.09152 4.11651 4.829 4.352C4.29704 4.83262 3.57699 5.10165 2.827 5.1C2.07833 5.09954 1.35994 4.8312 0.8272 4.353C0.565633 4.11671 0.357924 3.83582 0.215978 3.52643C0.0740316 3.21704 0.000637045 2.88522 0 2.55C0 1.873 0.297 1.225 0.8283 0.747C1.36057 0.268158 2.07926 -0.000299211 2.8281 2.50265e-07C3.5783 2.50265e-07 4.2977 0.269 4.829 0.747C5.3592 1.225 5.6573 1.873 5.6573 2.55Z" fill="white"/>
</svg>
