<svg width="38" height="35" viewBox="0 0 38 35" fill="none" xmlns="http://www.w3.org/2000/svg">
<path fill-rule="evenodd" clip-rule="evenodd" d="M14.1059 11.9236H21.0129V15.0888C22.0078 13.2684 24.5594 11.6327 28.3923 11.6327C35.74 11.6327 37.4844 15.2565 37.4844 21.9052V34.2188H30.0456V23.4194C30.0456 19.6331 29.0506 17.4978 26.5177 17.4978C23.0047 17.4978 21.5448 19.799 21.5448 23.4177V34.2188H14.1059V11.9236V11.9236ZM1.35008 33.928H8.78896V11.6327H1.35008V33.928V33.928ZM9.85458 4.3629C9.85485 4.93654 9.7312 5.5045 9.49079 6.03379C9.25039 6.56307 8.89803 7.04312 8.45421 7.44602C7.55485 8.26834 6.33749 8.72863 5.06952 8.72581C3.80377 8.72502 2.58923 8.2659 1.68855 7.44773C1.24633 7.04346 0.895166 6.56287 0.655183 6.03352C0.415201 5.50417 0.291116 4.93645 0.290039 4.3629C0.290039 3.2046 0.792163 2.0959 1.69041 1.27807C2.5903 0.458804 3.80536 -0.000511932 5.07138 4.28188e-07C6.33971 4.28188e-07 7.55596 0.460244 8.45421 1.27807C9.35059 2.0959 9.85458 3.2046 9.85458 4.3629Z" fill="white"/>
</svg>
