<svg width="38" height="35" viewBox="0 0 38 35" fill="none" xmlns="http://www.w3.org/2000/svg">
<path fill-rule="evenodd" clip-rule="evenodd" d="M14.1057 11.9236H21.0127V15.0888C22.0076 13.2684 24.5591 11.6327 28.392 11.6327C35.7398 11.6327 37.4842 15.2565 37.4842 21.9052V34.2188H30.0453V23.4194C30.0453 19.6331 29.0504 17.4978 26.5174 17.4978C23.0044 17.4978 21.5445 19.799 21.5445 23.4177V34.2188H14.1057V11.9236V11.9236ZM1.34983 33.928H8.78871V11.6327H1.34983V33.928V33.928ZM9.85433 4.3629C9.85461 4.93654 9.73095 5.5045 9.49055 6.03379C9.25014 6.56307 8.89779 7.04312 8.45396 7.44602C7.5546 8.26834 6.33725 8.72863 5.06927 8.72581C3.80353 8.72502 2.58899 8.2659 1.6883 7.44773C1.24608 7.04346 0.894921 6.56287 0.654939 6.03352C0.414957 5.50417 0.290872 4.93645 0.289795 4.3629C0.289795 3.2046 0.791919 2.0959 1.69016 1.27807C2.59005 0.458804 3.80511 -0.000511932 5.07113 4.28188e-07C6.33946 4.28188e-07 7.55572 0.460244 8.45396 1.27807C9.35035 2.0959 9.85433 3.2046 9.85433 4.3629Z" fill="white"/>
</svg>
