<svg width="414" height="11" viewBox="0 0 414 11" fill="none" xmlns="http://www.w3.org/2000/svg">
<path d="M40.6239 6.94107C43.5914 6.94107 45.3541 6.44237 45.3541 5.59612C45.3541 4.7655 43.4782 4.31024 40.6886 4.31024C38.1496 4.31024 36.3545 4.67689 36.3545 5.18949C36.3545 5.67083 37.9716 6.02184 40.1953 6.02184C41.5618 6.02184 42.6696 5.8863 43.2194 5.64824H43.3568C43.3327 6.23731 42.3542 6.57442 40.6481 6.57442C39.6454 6.57442 38.8449 6.45627 38.5943 6.26512H36.5162C36.8558 6.67347 38.4892 6.94107 40.6239 6.94107ZM40.6966 5.67605C39.3382 5.67605 38.4002 5.47101 38.4002 5.17559C38.4002 4.89236 39.3867 4.67516 40.7047 4.67516C42.0228 4.67516 43.0092 4.89582 43.0092 5.1843C43.0092 5.46926 42.0469 5.67605 40.6966 5.67605ZM48.6638 5.25728C49.4319 5.25728 49.9575 5.14259 49.9575 4.98792C49.9575 4.83328 49.4319 4.7186 48.6638 4.7186C47.9037 4.7186 47.37 4.83328 47.37 4.98792C47.37 5.14259 47.9037 5.25728 48.6638 5.25728ZM48.6638 6.53273C49.4319 6.53273 49.9575 6.41629 49.9575 6.26338C49.9575 6.10872 49.4319 5.99403 48.6638 5.99403C47.9037 5.99403 47.37 6.10872 47.37 6.26338C47.37 6.41629 47.9037 6.53273 48.6638 6.53273ZM57.6659 6.88026H59.6631V6.39893H61.2399V6.02879H59.6631V4.3728H56.7199C55.135 4.89063 53.4774 5.46753 51.9653 6.03228V6.39893H57.6659V6.88026ZM53.8978 6.01316C55.038 5.58743 56.3883 5.12347 57.5851 4.73074H57.6982V6.03923H53.8978V6.01316ZM65.6654 6.88026H67.7516V4.3728H65.6735L62.6251 4.83328V5.25554L65.5279 4.81416H65.6654V6.88026Z" fill="black"/>
<path fill-rule="evenodd" clip-rule="evenodd" d="M344.447 4.27051H343.343C342.734 4.27051 342.239 4.37672 342.239 4.50776V6.56394C342.239 6.69497 342.734 6.80119 343.343 6.80119H344.447C345.057 6.80119 345.551 6.69497 345.551 6.56394V4.50776C345.551 4.37672 345.057 4.27051 344.447 4.27051ZM338.191 4.82408H339.295C339.905 4.82408 340.399 4.9303 340.399 5.06134V6.56394C340.399 6.69497 339.905 6.80119 339.295 6.80119H338.191C337.581 6.80119 337.087 6.69497 337.087 6.56394V5.06134C337.087 4.9303 337.581 4.82408 338.191 4.82408ZM334.144 5.37769H333.04C332.429 5.37769 331.936 5.4839 331.936 5.61494V6.56394C331.936 6.69497 332.429 6.80119 333.04 6.80119H334.144C334.753 6.80119 335.248 6.69497 335.248 6.56394V5.61494C335.248 5.4839 334.753 5.37769 334.144 5.37769ZM328.991 5.85219H327.887C327.278 5.85219 326.783 5.9584 326.783 6.08944V6.56394C326.783 6.69497 327.278 6.80119 327.887 6.80119H328.991C329.601 6.80119 330.095 6.69497 330.095 6.56394V6.08944C330.095 5.9584 329.601 5.85219 328.991 5.85219Z" fill="black"/>
<path fill-rule="evenodd" clip-rule="evenodd" d="M365.357 5.37508C363.584 5.01284 361.23 4.81082 358.785 4.8108C356.337 4.8108 353.985 5.01282 352.212 5.37508C352.078 5.40307 351.865 5.40272 351.734 5.37427L350.456 5.09749C350.39 5.08307 350.352 5.06354 350.354 5.04323C350.355 5.02295 350.392 5.00352 350.46 4.98931C355.113 4.03091 362.454 4.03091 367.108 4.98931C367.175 5.00354 367.214 5.02295 367.214 5.04326C367.215 5.06357 367.177 5.08307 367.111 5.09749L365.835 5.37427C365.704 5.40267 365.49 5.40302 365.357 5.37508ZM358.785 5.71133C360.128 5.71131 361.424 5.81866 362.421 6.01257C362.556 6.04007 362.768 6.03947 362.899 6.01122L364.174 5.73442C364.241 5.7199 364.278 5.7002 364.277 5.67973C364.276 5.65928 364.237 5.63975 364.169 5.62552C361.135 5.01901 356.437 5.01901 353.403 5.62552C353.334 5.63975 353.295 5.65928 353.293 5.67975C353.293 5.70023 353.33 5.71992 353.397 5.73442L354.672 6.01122C354.804 6.03947 355.016 6.04007 355.15 6.01257C356.146 5.81881 357.441 5.71145 358.785 5.71133ZM361.235 6.37191C361.302 6.35753 361.339 6.33774 361.338 6.31722C361.336 6.2967 361.294 6.27727 361.224 6.26348C359.816 6.00751 357.753 6.00751 356.345 6.26348C356.274 6.27725 356.232 6.29668 356.23 6.3172C356.229 6.33772 356.267 6.35753 356.334 6.37191L358.54 6.85013C358.604 6.86418 358.692 6.8721 358.785 6.8721C358.876 6.8721 358.965 6.86418 359.029 6.85013L361.235 6.37191Z" fill="black"/>
<path opacity="0.35" d="M371.495 4.66594C371.495 4.38202 372.566 4.15189 373.887 4.15189H392.287C393.608 4.15189 394.679 4.38202 394.679 4.66594V6.08944C394.679 6.37333 393.608 6.60347 392.287 6.60347H373.887C372.566 6.60347 371.495 6.37333 371.495 6.08944V4.66594Z" stroke="black"/>
<path opacity="0.4" d="M396.335 4.9032V5.8522C397.224 5.77182 397.801 5.58484 397.801 5.3777C397.801 5.17056 397.224 4.98358 396.335 4.9032Z" fill="black"/>
<path d="M373.151 4.82408C373.151 4.64939 373.81 4.50775 374.623 4.50775H391.552C392.364 4.50775 393.023 4.64939 393.023 4.82408V5.93126C393.023 6.10597 392.364 6.24758 391.552 6.24758H374.623C373.81 6.24758 373.151 6.10597 373.151 5.93126V4.82408Z" fill="black"/>
</svg>
