<svg width="35" height="28" viewBox="0 0 35 28" fill="none" xmlns="http://www.w3.org/2000/svg">
<path d="M34.048 3.69599C32.8057 4.24647 31.4712 4.61841 30.0682 4.78653C31.5158 3.92033 32.5989 2.55705 33.1152 0.951043C31.7551 1.75889 30.2666 2.32753 28.7144 2.63223C27.6705 1.51768 26.2879 0.778946 24.7812 0.530707C23.2744 0.282469 21.7279 0.538619 20.3817 1.25939C19.0355 1.98016 17.9648 3.12522 17.3361 4.5168C16.7073 5.90838 16.5556 7.46862 16.9044 8.95528C14.1486 8.81691 11.4526 8.10062 8.99155 6.85291C6.53047 5.60519 4.35924 3.85393 2.61877 1.71278C2.02366 2.73935 1.68148 3.92957 1.68148 5.19715C1.68081 6.33827 1.96182 7.46191 2.49957 8.46837C3.03732 9.47484 3.81519 10.333 4.76415 10.9667C3.6636 10.9317 2.58734 10.6344 1.62494 10.0994V10.1886C1.62483 11.7891 2.17844 13.3403 3.19184 14.5791C4.20524 15.8178 5.61601 16.6678 7.18476 16.9848C6.16382 17.2611 5.09345 17.3018 4.05448 17.1038C4.49709 18.4809 5.35925 19.6852 6.52027 20.5479C7.68129 21.4107 9.08304 21.8888 10.5293 21.9153C8.0742 23.8426 5.04219 24.888 1.92101 24.8834C1.36812 24.8836 0.815704 24.8513 0.266602 24.7867C3.43478 26.8237 7.12278 27.9048 10.8893 27.9006C23.6396 27.9006 30.6098 17.3404 30.6098 8.18163C30.6098 7.88408 30.6023 7.58355 30.589 7.28599C31.9448 6.30551 33.1151 5.09137 34.0451 3.70045L34.048 3.69599V3.69599Z" fill="white"/>
</svg>
