<svg width="38" height="35" viewBox="0 0 38 35" fill="none" xmlns="http://www.w3.org/2000/svg">
<path fill-rule="evenodd" clip-rule="evenodd" d="M13.8159 11.9236H20.7229V15.0888C21.7178 13.2684 24.2693 11.6327 28.1022 11.6327C35.45 11.6327 37.1944 15.2565 37.1944 21.9052V34.2188H29.7555V23.4194C29.7555 19.6331 28.7606 17.4978 26.2276 17.4978C22.7146 17.4978 21.2547 19.799 21.2547 23.4177V34.2188H13.8159V11.9236ZM1.06004 33.928H8.49892V11.6327H1.06004V33.928ZM9.56454 4.3629C9.56481 4.93654 9.44116 5.5045 9.20075 6.03379C8.96035 6.56307 8.608 7.04312 8.16417 7.44602C7.26481 8.26834 6.04745 8.72863 4.77948 8.72581C3.51374 8.72502 2.29919 8.2659 1.39851 7.44773C0.956289 7.04346 0.605126 6.56287 0.365144 6.03352C0.125162 5.50417 0.00107702 4.93645 0 4.3629C0 3.2046 0.502124 2.0959 1.40037 1.27807C2.30026 0.458804 3.51532 -0.000511932 4.78134 4.28188e-07C6.04967 4.28188e-07 7.26592 0.460244 8.16417 1.27807C9.06055 2.0959 9.56454 3.2046 9.56454 4.3629Z" fill="#2F2FFF"/>
</svg>
