<svg width="28" height="28" viewBox="0 0 28 28" fill="none" xmlns="http://www.w3.org/2000/svg">
<path d="M27.3879 8.3597C27.3729 7.23289 27.162 6.11729 26.7646 5.06279C26.4199 4.17332 25.8935 3.36553 25.219 2.69102C24.5445 2.01651 23.7367 1.49012 22.8473 1.14548C21.8063 0.754721 20.7066 0.543434 19.595 0.520609C18.1637 0.456635 17.71 0.438782 14.0768 0.438782C10.4437 0.438782 9.97799 0.438782 8.55717 0.520609C7.44604 0.543602 6.34685 0.754887 5.30638 1.14548C4.41678 1.48988 3.60886 2.01619 2.93432 2.69073C2.25978 3.36527 1.73347 4.17319 1.38907 5.06279C0.99753 6.10294 0.786701 7.20237 0.765688 8.31358C0.701714 9.74631 0.682373 10.2001 0.682373 13.8332C0.682373 17.4664 0.682373 17.9306 0.765688 19.3529C0.788005 20.4657 0.997781 21.5637 1.38907 22.6066C1.73405 23.496 2.26075 24.3036 2.93551 24.9778C3.61028 25.6521 4.41827 26.1782 5.30787 26.5225C6.34549 26.9289 7.44487 27.1553 8.55866 27.192C9.99139 27.2559 10.4452 27.2753 14.0783 27.2753C17.7115 27.2753 18.1771 27.2753 19.598 27.192C20.7095 27.1701 21.8093 26.9593 22.8502 26.5686C23.7395 26.2235 24.547 25.697 25.2215 25.0226C25.896 24.3481 26.4225 23.5405 26.7675 22.6513C27.1588 21.6098 27.3686 20.5119 27.3909 19.3975C27.4549 17.9663 27.4742 17.5125 27.4742 13.8779C27.4713 10.2447 27.4713 9.7835 27.3879 8.3597ZM14.0679 20.7038C10.2681 20.7038 7.1899 17.6256 7.1899 13.8258C7.1899 10.026 10.2681 6.9478 14.0679 6.9478C15.892 6.9478 17.6415 7.67244 18.9314 8.96232C20.2212 10.2522 20.9459 12.0016 20.9459 13.8258C20.9459 15.6499 20.2212 17.3994 18.9314 18.6893C17.6415 19.9791 15.892 20.7038 14.0679 20.7038ZM21.2196 8.29721C21.009 8.29741 20.8003 8.25606 20.6056 8.17553C20.411 8.095 20.2341 7.97687 20.0851 7.8279C19.9362 7.67893 19.818 7.50205 19.7375 7.30738C19.657 7.11271 19.6156 6.90406 19.6158 6.69339C19.6158 6.48287 19.6573 6.27441 19.7378 6.07992C19.8184 5.88543 19.9365 5.7087 20.0853 5.55984C20.2342 5.41098 20.4109 5.2929 20.6054 5.21234C20.7999 5.13178 21.0084 5.09031 21.2189 5.09031C21.4294 5.09031 21.6379 5.13178 21.8324 5.21234C22.0268 5.2929 22.2036 5.41098 22.3524 5.55984C22.5013 5.7087 22.6194 5.88543 22.6999 6.07992C22.7805 6.27441 22.822 6.48287 22.822 6.69339C22.822 7.5801 22.1049 8.29721 21.2196 8.29721Z" fill="#2F2FFF"/>
</svg>
