<svg width="35" height="28" viewBox="0 0 35 28" fill="none" xmlns="http://www.w3.org/2000/svg">
<path d="M34.048 3.69629C32.8057 4.24677 31.4712 4.61872 30.0682 4.78683C31.5158 3.92064 32.5989 2.55735 33.1152 0.951348C31.7551 1.75919 30.2666 2.32783 28.7144 2.63253C27.6705 1.51799 26.2879 0.779251 24.7812 0.531013C23.2744 0.282774 21.7279 0.538924 20.3817 1.25969C19.0355 1.98046 17.9648 3.12553 17.3361 4.51711C16.7073 5.90868 16.5556 7.46892 16.9044 8.95558C14.1486 8.81721 11.4526 8.10093 8.99155 6.85321C6.53047 5.6055 4.35924 3.85424 2.61877 1.71309C2.02366 2.73965 1.68148 3.92987 1.68148 5.19746C1.68081 6.33858 1.96182 7.46221 2.49957 8.46868C3.03732 9.47515 3.81519 10.3333 4.76415 10.9671C3.6636 10.932 2.58734 10.6347 1.62494 10.0997V10.1889C1.62483 11.7894 2.17844 13.3406 3.19184 14.5794C4.20524 15.8181 5.61601 16.6681 7.18476 16.9851C6.16382 17.2614 5.09345 17.3021 4.05448 17.1041C4.49709 18.4812 5.35925 19.6855 6.52027 20.5482C7.68129 21.411 9.08304 21.8891 10.5293 21.9156C8.0742 23.8429 5.04219 24.8883 1.92101 24.8837C1.36812 24.8839 0.815704 24.8516 0.266602 24.787C3.43478 26.824 7.12278 27.9051 10.8893 27.9009C23.6396 27.9009 30.6098 17.3407 30.6098 8.18194C30.6098 7.88438 30.6023 7.58385 30.589 7.2863C31.9448 6.30581 33.1151 5.09167 34.0451 3.70076L34.048 3.69629V3.69629Z" fill="#2F2FFF"/>
</svg>
