<svg width="19" height="18" viewBox="0 0 19 18" fill="none" xmlns="http://www.w3.org/2000/svg">
<path fill-rule="evenodd" clip-rule="evenodd" d="M7.2126 6.14952H10.6944V7.78198C11.196 6.8431 12.4822 5.99951 14.4143 5.99951C18.1183 5.99951 18.9977 7.86846 18.9977 11.2975V17.6482H15.2477V12.0784C15.2477 10.1257 14.7462 9.02442 13.4693 9.02442C11.6984 9.02442 10.9625 10.2113 10.9625 12.0776V17.6482H7.2126V6.14952V6.14952ZM0.782411 17.4982H4.53234V5.99951H0.782411V17.4982V17.4982ZM5.06951 2.25015C5.06965 2.546 5.00732 2.83892 4.88613 3.1119C4.76494 3.38487 4.58732 3.63246 4.36359 3.84025C3.91022 4.26436 3.29656 4.50175 2.65737 4.5003C2.01931 4.49989 1.40707 4.2631 0.953033 3.84113C0.730111 3.63263 0.55309 3.38477 0.432115 3.11176C0.311141 2.83875 0.24859 2.54595 0.248047 2.25015C0.248047 1.65276 0.501167 1.08095 0.95397 0.659161C1.4076 0.236626 2.02011 -0.000264027 2.65831 2.20836e-07C3.29767 2.20836e-07 3.91079 0.237369 4.36359 0.659161C4.81546 1.08095 5.06951 1.65276 5.06951 2.25015Z" fill="#2F2FFF"/>
</svg>
