<svg width="35" height="28" viewBox="0 0 35 28" fill="none" xmlns="http://www.w3.org/2000/svg">
<path d="M34.5527 3.72666C33.3053 4.2787 31.9653 4.6517 30.5566 4.82029C32.0101 3.95164 33.0976 2.58448 33.616 0.973921C32.2504 1.78406 30.7558 2.35431 29.1972 2.65988C28.149 1.54217 26.7607 0.801336 25.2478 0.552392C23.7349 0.303449 22.1821 0.560326 20.8303 1.28314C19.4786 2.00596 18.4036 3.15427 17.7722 4.5498C17.1409 5.94533 16.9885 7.51 17.3388 9.00087C14.5717 8.86211 11.8647 8.1438 9.39352 6.89254C6.92235 5.64128 4.74222 3.88505 2.99462 1.73782C2.39708 2.7673 2.05349 3.9609 2.05349 5.23209C2.05282 6.37644 2.33498 7.50327 2.87493 8.51259C3.41489 9.52191 4.19594 10.3825 5.14879 11.0181C4.04374 10.9829 2.96306 10.6847 1.99672 10.1482V10.2377C1.99661 11.8427 2.55249 13.3984 3.57004 14.6406C4.58759 15.8829 6.00414 16.7353 7.57932 17.0532C6.5542 17.3303 5.47944 17.3711 4.43621 17.1726C4.88064 18.5536 5.74633 19.7612 6.91211 20.6264C8.07788 21.4916 9.48538 21.9711 10.9375 21.9977C8.47241 23.9304 5.42798 24.9788 2.294 24.9742C1.73885 24.9744 1.18417 24.942 0.632812 24.8772C3.81398 26.92 7.51709 28.0042 11.2991 28C24.1016 28 31.1003 17.4098 31.1003 8.22504C31.1003 7.92664 31.0929 7.62525 31.0794 7.32685C32.4408 6.34359 33.6159 5.126 34.5497 3.73114L34.5527 3.72666V3.72666Z" fill="#2F2FFF"/>
</svg>
