<svg width="18" height="15" viewBox="0 0 18 15" fill="none" xmlns="http://www.w3.org/2000/svg">
<path d="M17.0282 2.51656C16.4019 2.80047 15.7292 2.9923 15.022 3.07901C15.7517 2.63227 16.2977 1.92916 16.5579 1.10087C15.8723 1.51751 15.122 1.81079 14.3395 1.96794C13.8133 1.39311 13.1163 1.01211 12.3568 0.884085C11.5972 0.756057 10.8176 0.888165 10.139 1.2599C9.46037 1.63163 8.92068 2.22219 8.60372 2.93989C8.28676 3.6576 8.21026 4.46228 8.38611 5.22902C6.9969 5.15766 5.63788 4.78823 4.39725 4.14473C3.15663 3.50123 2.06211 2.59802 1.18475 1.49374C0.884756 2.02318 0.712259 2.63703 0.712259 3.29078C0.711925 3.87931 0.853581 4.45882 1.12466 4.9779C1.39574 5.49698 1.78786 5.93958 2.26623 6.26643C1.71145 6.24837 1.1689 6.095 0.68376 5.81908V5.86512C0.683704 6.69055 0.962779 7.49058 1.47363 8.12946C1.98448 8.76834 2.69565 9.20672 3.48645 9.37021C2.9718 9.51271 2.43223 9.5337 1.90849 9.4316C2.1316 10.1418 2.56622 10.7629 3.15149 11.2079C3.73675 11.6528 4.44337 11.8994 5.17242 11.9131C3.93482 12.9071 2.40639 13.4462 0.833007 13.4439C0.554298 13.444 0.275825 13.4273 -0.000976562 13.394C1.5961 14.4446 3.45521 15.0022 5.35392 15C11.7813 15 15.295 9.5536 15.295 4.83002C15.295 4.67655 15.2912 4.52156 15.2845 4.36809C15.9679 3.86241 16.5579 3.23623 17.0267 2.51887L17.0282 2.51656V2.51656Z" fill="#2F2FFF"/>
</svg>
