<svg width="35" height="28" viewBox="0 0 35 28" fill="none" xmlns="http://www.w3.org/2000/svg">
<path d="M34.048 3.69629C32.8057 4.24677 31.4711 4.61872 30.0682 4.78683C31.5158 3.92064 32.5988 2.55735 33.1151 0.951348C31.7551 1.75919 30.2666 2.32783 28.7143 2.63253C27.6704 1.51799 26.2878 0.779251 24.7811 0.531013C23.2744 0.282774 21.7278 0.538924 20.3816 1.25969C19.0354 1.98046 17.9648 3.12553 17.336 4.51711C16.7073 5.90868 16.5555 7.46892 16.9043 8.95558C14.1485 8.81721 11.4526 8.10093 8.99149 6.85321C6.5304 5.6055 4.35918 3.85424 2.61871 1.71309C2.0236 2.73965 1.68142 3.92987 1.68142 5.19746C1.68075 6.33858 1.96176 7.46221 2.49951 8.46868C3.03726 9.47515 3.81513 10.3333 4.76409 10.9671C3.66354 10.932 2.58728 10.6347 1.62488 10.0997V10.1889C1.62477 11.7894 2.17838 13.3406 3.19178 14.5794C4.20518 15.8181 5.61594 16.6681 7.1847 16.9851C6.16376 17.2614 5.09339 17.3021 4.05442 17.1041C4.49703 18.4812 5.35919 19.6855 6.52021 20.5482C7.68123 21.411 9.08298 21.8891 10.5292 21.9156C8.07414 23.8429 5.04213 24.8883 1.92095 24.8837C1.36806 24.8839 0.815643 24.8516 0.266541 24.787C3.43472 26.824 7.12272 27.9051 10.8893 27.9009C23.6395 27.9009 30.6097 17.3407 30.6097 8.18194C30.6097 7.88438 30.6023 7.58385 30.5889 7.2863C31.9447 6.30581 33.115 5.09167 34.045 3.70076L34.048 3.69629V3.69629Z" fill="#2F2FFF"/>
</svg>
