<svg width="28" height="28" viewBox="0 0 28 28" fill="none" xmlns="http://www.w3.org/2000/svg">
<path d="M27.3882 8.3594C27.3732 7.23259 27.1622 6.11698 26.7648 5.06248C26.4202 4.17302 25.8938 3.36523 25.2193 2.69072C24.5448 2.01621 23.737 1.48981 22.8475 1.14517C21.8066 0.754416 20.7069 0.543129 19.5952 0.520304C18.164 0.45633 17.7102 0.438477 14.0771 0.438477C10.4439 0.438477 9.97824 0.438477 8.55741 0.520304C7.44628 0.543296 6.3471 0.754581 5.30662 1.14517C4.41702 1.48957 3.6091 2.01588 2.93456 2.69042C2.26002 3.36496 1.73371 4.17288 1.38931 5.06248C0.997774 6.10264 0.786945 7.20207 0.765933 8.31327C0.701958 9.746 0.682617 10.1998 0.682617 13.8329C0.682617 17.4661 0.682617 17.9303 0.765933 19.3526C0.788249 20.4654 0.998025 21.5634 1.38931 22.6063C1.73429 23.4957 2.26099 24.3033 2.93576 24.9775C3.61052 25.6518 4.41852 26.1779 5.30811 26.5222C6.34574 26.9286 7.44511 27.155 8.5589 27.1917C9.99163 27.2556 10.4454 27.275 14.0785 27.275C17.7117 27.275 18.1774 27.275 19.5982 27.1917C20.7098 27.1698 21.8096 26.959 22.8505 26.5683C23.7397 26.2232 24.5473 25.6967 25.2218 25.0222C25.8962 24.3478 26.4227 23.5402 26.7678 22.651C27.1591 21.6095 27.3688 20.5115 27.3912 19.3972C27.4551 17.966 27.4745 17.5122 27.4745 13.8776C27.4715 10.2444 27.4715 9.7832 27.3882 8.3594ZM14.0681 20.7035C10.2684 20.7035 7.19015 17.6253 7.19015 13.8255C7.19015 10.0257 10.2684 6.94749 14.0681 6.94749C15.8923 6.94749 17.6417 7.67214 18.9316 8.96201C20.2215 10.2519 20.9461 12.0013 20.9461 13.8255C20.9461 15.6496 20.2215 17.3991 18.9316 18.689C17.6417 19.9788 15.8923 20.7035 14.0681 20.7035ZM21.2199 8.29691C21.0092 8.2971 20.8006 8.25575 20.6059 8.17522C20.4112 8.09469 20.2343 7.97656 20.0854 7.8276C19.9364 7.67863 19.8183 7.50175 19.7377 7.30707C19.6572 7.1124 19.6159 6.90376 19.616 6.69309C19.616 6.48257 19.6575 6.27411 19.7381 6.07961C19.8186 5.88512 19.9367 5.7084 20.0856 5.55954C20.2344 5.41068 20.4112 5.2926 20.6057 5.21203C20.8001 5.13147 21.0086 5.09001 21.2191 5.09001C21.4296 5.09001 21.6381 5.13147 21.8326 5.21203C22.0271 5.2926 22.2038 5.41068 22.3527 5.55954C22.5015 5.7084 22.6196 5.88512 22.7002 6.07961C22.7807 6.27411 22.8222 6.48257 22.8222 6.69309C22.8222 7.5798 22.1051 8.29691 21.2199 8.29691Z" fill="white"/>
</svg>
