<svg width="15" height="15" viewBox="0 0 15 15" fill="none" xmlns="http://www.w3.org/2000/svg">
<path d="M13.9622 4.9217C13.9547 4.34055 13.8483 3.76518 13.648 3.22133C13.4743 2.76259 13.2089 2.34598 12.8689 1.9981C12.5289 1.65023 12.1217 1.37874 11.6733 1.20099C11.1485 0.999462 10.5942 0.890491 10.0338 0.87872C9.31232 0.845725 9.08358 0.836517 7.25212 0.836517C5.42065 0.836517 5.18591 0.836517 4.46967 0.87872C3.90955 0.890578 3.35545 0.999547 2.83095 1.20099C2.38251 1.37862 1.97524 1.65006 1.6352 1.99795C1.29517 2.34584 1.02986 2.76252 0.856243 3.22133C0.65887 3.75778 0.552591 4.32481 0.541999 4.89791C0.50975 5.63683 0.5 5.87086 0.5 7.74464C0.5 9.61842 0.5 9.85783 0.541999 10.5914C0.553249 11.1653 0.658997 11.7316 0.856243 12.2695C1.03015 12.7282 1.29566 13.1447 1.6358 13.4924C1.97595 13.8402 2.38326 14.1115 2.8317 14.2891C3.35477 14.4987 3.90896 14.6155 4.47042 14.6344C5.19266 14.6673 5.4214 14.6773 7.25287 14.6773C9.08433 14.6773 9.31907 14.6773 10.0353 14.6344C10.5957 14.6231 11.1501 14.5143 11.6748 14.3128C12.123 14.1349 12.5301 13.8633 12.8701 13.5155C13.2101 13.1676 13.4756 12.7511 13.6495 12.2925C13.8467 11.7554 13.9525 11.1891 13.9637 10.6144C13.996 9.87624 14.0057 9.64221 14.0057 7.76766C14.0042 5.89388 14.0042 5.65602 13.9622 4.9217V4.9217ZM7.24762 11.2881C5.33215 11.2881 3.78043 9.70053 3.78043 7.74081C3.78043 5.78109 5.33215 4.19352 7.24762 4.19352C8.16717 4.19352 9.04906 4.56725 9.69928 5.23249C10.3495 5.89774 10.7148 6.80001 10.7148 7.74081C10.7148 8.68161 10.3495 9.58387 9.69928 10.2491C9.04906 10.9144 8.16717 11.2881 7.24762 11.2881V11.2881ZM10.8528 4.88947C10.7466 4.88957 10.6414 4.86824 10.5433 4.82671C10.4451 4.78518 10.356 4.72425 10.2809 4.64742C10.2058 4.57059 10.1462 4.47937 10.1057 4.37897C10.0651 4.27856 10.0442 4.17096 10.0443 4.0623C10.0443 3.95373 10.0652 3.84622 10.1058 3.74591C10.1464 3.6456 10.206 3.55446 10.281 3.47768C10.356 3.40091 10.4451 3.34001 10.5432 3.29846C10.6412 3.25691 10.7463 3.23552 10.8524 3.23552C10.9585 3.23552 11.0636 3.25691 11.1617 3.29846C11.2597 3.34001 11.3488 3.40091 11.4238 3.47768C11.4989 3.55446 11.5584 3.6456 11.599 3.74591C11.6396 3.84622 11.6605 3.95373 11.6605 4.0623C11.6605 4.51962 11.299 4.88947 10.8528 4.88947Z" fill="#2F2FFF"/>
</svg>
