<svg width="19" height="17" viewBox="0 0 19 17" fill="none" xmlns="http://www.w3.org/2000/svg">
<path fill-rule="evenodd" clip-rule="evenodd" d="M7.2126 5.80788H10.6944V7.34965C11.196 6.46292 12.4822 5.66621 14.4143 5.66621C18.1183 5.66621 18.9977 7.43132 18.9977 10.6699V16.6678H15.2477V11.4074C15.2477 9.56313 14.7462 8.52306 13.4693 8.52306C11.6984 8.52306 10.9625 9.64397 10.9625 11.4066V16.6678H7.2126V5.80788V5.80788ZM0.782411 16.5261H4.53234V5.66621H0.782411V16.5261V16.5261ZM5.06951 2.12514C5.06965 2.40455 5.00732 2.68121 4.88613 2.93902C4.76494 3.19683 4.58732 3.43065 4.36359 3.62691C3.91022 4.02745 3.29656 4.25166 2.65737 4.25028C2.01931 4.2499 1.40707 4.02626 0.953033 3.62774C0.730111 3.43082 0.55309 3.19673 0.432115 2.93889C0.311141 2.68104 0.24859 2.40451 0.248047 2.12514C0.248047 1.56094 0.501167 1.0209 0.95397 0.622541C1.4076 0.22348 2.02011 -0.000249359 2.65831 2.08567e-07C3.29767 2.08567e-07 3.91079 0.224182 4.36359 0.622541C4.81546 1.0209 5.06951 1.56094 5.06951 2.12514Z" fill="#2F2FFF"/>
</svg>
