<svg width="28" height="25" viewBox="0 0 28 25" fill="none" xmlns="http://www.w3.org/2000/svg">
<path fill-rule="evenodd" clip-rule="evenodd" d="M10.6101 8.82469H15.5639V11.092C16.2775 9.78799 18.1075 8.61635 20.8564 8.61635C26.1264 8.61635 27.3775 11.2121 27.3775 15.9747V24.7951H22.0422V17.0593C22.0422 14.3471 21.3286 12.8176 19.512 12.8176C16.9924 12.8176 15.9453 14.466 15.9453 17.0581V24.7951H10.6101V8.82469V8.82469ZM1.46145 24.5868H6.79671V8.61635H1.46145V24.5868V24.5868ZM7.56098 3.4089C7.56118 3.8198 7.47249 4.22664 7.30007 4.60577C7.12765 4.98491 6.87494 5.32877 6.55662 5.61738C5.91159 6.20641 5.03848 6.53613 4.12908 6.5341C3.22127 6.53354 2.35018 6.20467 1.7042 5.6186C1.38703 5.32901 1.13518 4.98477 0.963058 4.60558C0.79094 4.2264 0.701944 3.81974 0.701172 3.4089C0.701172 2.57919 1.0613 1.78502 1.70553 1.19919C2.35095 0.612339 3.2224 0.283325 4.13041 0.283692C5.04007 0.283692 5.91239 0.61337 6.55662 1.19919C7.19952 1.78502 7.56098 2.57919 7.56098 3.4089Z" fill="#2F2FFF"/>
</svg>
