<svg width="18" height="14" viewBox="0 0 18 14" fill="none" xmlns="http://www.w3.org/2000/svg">
<path d="M17.0282 2.21009C16.4019 2.47823 15.7292 2.6594 15.022 2.74129C15.7517 2.31937 16.2977 1.65532 16.5579 0.87305C15.8723 1.26655 15.122 1.54353 14.3395 1.69194C13.8133 1.14906 13.1163 0.789223 12.3568 0.668308C11.5972 0.547392 10.8176 0.672161 10.139 1.02324C9.46037 1.37432 8.92068 1.93208 8.60372 2.60991C8.28676 3.28773 8.21026 4.04771 8.38611 4.77186C6.9969 4.70446 5.63788 4.35556 4.39725 3.74781C3.15663 3.14005 2.06211 2.28703 1.18475 1.24409C0.884756 1.74412 0.712259 2.32387 0.712259 2.9413C0.711925 3.49713 0.853581 4.04445 1.12466 4.53469C1.39574 5.02493 1.78786 5.44294 2.26623 5.75163C1.71145 5.73457 1.16891 5.58972 0.68376 5.32914V5.37262C0.683704 6.15219 0.962779 6.90778 1.47363 7.51116C1.98448 8.11455 2.69565 8.52857 3.48645 8.68298C2.9718 8.81757 2.43223 8.83739 1.90849 8.74096C2.1316 9.41174 2.56622 9.99831 3.15149 10.4185C3.73675 10.8388 4.44337 11.0717 5.17242 11.0846C3.93482 12.0234 2.40639 12.5326 0.833007 12.5303C0.554298 12.5304 0.275825 12.5147 -0.000976562 12.4832C1.5961 13.4755 3.45521 14.002 5.35392 14C11.7813 14 15.295 8.85618 15.295 4.39502C15.295 4.25008 15.2912 4.1037 15.2845 3.95876C15.9679 3.48117 16.5579 2.88977 17.0267 2.21227L17.0282 2.21009Z" fill="#2F2FFF"/>
</svg>
