<svg width="28" height="28" viewBox="0 0 28 28" fill="none" xmlns="http://www.w3.org/2000/svg">
<path d="M27.3879 8.35939C27.3729 7.23259 27.162 6.11698 26.7646 5.06248C26.4199 4.17302 25.8935 3.36523 25.219 2.69072C24.5445 2.01621 23.7367 1.48981 22.8473 1.14517C21.8063 0.754416 20.7066 0.543129 19.595 0.520304C18.1637 0.45633 17.71 0.438477 14.0768 0.438477C10.4437 0.438477 9.978 0.438477 8.55717 0.520304C7.44604 0.543296 6.34685 0.754581 5.30638 1.14517C4.41678 1.48957 3.60886 2.01588 2.93432 2.69042C2.25978 3.36496 1.73347 4.17288 1.38907 5.06248C0.99753 6.10264 0.786701 7.20207 0.765688 8.31327C0.701714 9.746 0.682373 10.1998 0.682373 13.8329C0.682373 17.4661 0.682373 17.9303 0.765688 19.3526C0.788005 20.4654 0.997781 21.5634 1.38907 22.6063C1.73405 23.4957 2.26075 24.3033 2.93551 24.9775C3.61028 25.6518 4.41827 26.1779 5.30787 26.5222C6.34549 26.9286 7.44487 27.155 8.55866 27.1917C9.99139 27.2556 10.4452 27.275 14.0783 27.275C17.7115 27.275 18.1771 27.275 19.598 27.1917C20.7095 27.1698 21.8093 26.959 22.8502 26.5683C23.7395 26.2232 24.547 25.6967 25.2215 25.0222C25.896 24.3478 26.4225 23.5402 26.7675 22.651C27.1588 21.6095 27.3686 20.5115 27.3909 19.3972C27.4549 17.966 27.4742 17.5122 27.4742 13.8776C27.4713 10.2444 27.4713 9.7832 27.3879 8.35939V8.35939ZM14.0679 20.7035C10.2681 20.7035 7.1899 17.6253 7.1899 13.8255C7.1899 10.0257 10.2681 6.9475 14.0679 6.9475C15.892 6.9475 17.6415 7.67214 18.9314 8.96201C20.2212 10.2519 20.9459 12.0013 20.9459 13.8255C20.9459 15.6496 20.2212 17.3991 18.9314 18.689C17.6415 19.9788 15.892 20.7035 14.0679 20.7035V20.7035ZM21.2196 8.29691C21.009 8.2971 20.8003 8.25575 20.6056 8.17522C20.411 8.09469 20.2341 7.97656 20.0851 7.8276C19.9362 7.67863 19.818 7.50175 19.7375 7.30707C19.657 7.1124 19.6156 6.90376 19.6158 6.69309C19.6158 6.48257 19.6573 6.27411 19.7378 6.07961C19.8184 5.88512 19.9365 5.7084 20.0853 5.55954C20.2342 5.41068 20.4109 5.2926 20.6054 5.21203C20.7999 5.13147 21.0084 5.09001 21.2189 5.09001C21.4294 5.09001 21.6379 5.13147 21.8324 5.21203C22.0268 5.2926 22.2036 5.41068 22.3524 5.55954C22.5013 5.7084 22.6194 5.88512 22.6999 6.07961C22.7805 6.27411 22.822 6.48257 22.822 6.69309C22.822 7.5798 22.1049 8.29691 21.2196 8.29691Z" fill="white"/>
</svg>
