<svg width="28" height="28" viewBox="0 0 28 28" fill="none" xmlns="http://www.w3.org/2000/svg">
<path d="M27.3878 8.3597C27.3728 7.23289 27.1619 6.11729 26.7644 5.06279C26.4198 4.17332 25.8934 3.36553 25.2189 2.69102C24.5444 2.01651 23.7366 1.49012 22.8471 1.14548C21.8062 0.754721 20.7065 0.543434 19.5949 0.520609C18.1636 0.456635 17.7098 0.438782 14.0767 0.438782C10.4435 0.438782 9.97787 0.438782 8.55705 0.520609C7.44592 0.543602 6.34673 0.754887 5.30626 1.14548C4.41665 1.48988 3.60874 2.01619 2.9342 2.69073C2.25966 3.36527 1.73335 4.17319 1.38894 5.06279C0.997408 6.10294 0.786579 7.20237 0.765566 8.31358C0.701592 9.74631 0.682251 10.2001 0.682251 13.8332C0.682251 17.4664 0.682251 17.9306 0.765566 19.3529C0.787883 20.4657 0.997659 21.5637 1.38894 22.6066C1.73393 23.496 2.26063 24.3036 2.93539 24.9778C3.61016 25.6521 4.41815 26.1782 5.30774 26.5225C6.34537 26.9289 7.44475 27.1553 8.55854 27.192C9.99126 27.2559 10.445 27.2753 14.0782 27.2753C17.7113 27.2753 18.177 27.2753 19.5978 27.192C20.7094 27.1701 21.8092 26.9593 22.8501 26.5686C23.7393 26.2235 24.5469 25.697 25.2214 25.0226C25.8958 24.3481 26.4224 23.5405 26.7674 22.6513C27.1587 21.6098 27.3685 20.5119 27.3908 19.3975C27.4548 17.9663 27.4741 17.5125 27.4741 13.8779C27.4711 10.2447 27.4711 9.7835 27.3878 8.3597ZM14.0678 20.7038C10.268 20.7038 7.18978 17.6256 7.18978 13.8258C7.18978 10.026 10.268 6.9478 14.0678 6.9478C15.8919 6.9478 17.6414 7.67244 18.9312 8.96232C20.2211 10.2522 20.9458 12.0016 20.9458 13.8258C20.9458 15.6499 20.2211 17.3994 18.9312 18.6893C17.6414 19.9791 15.8919 20.7038 14.0678 20.7038ZM21.2195 8.29721C21.0088 8.29741 20.8002 8.25606 20.6055 8.17553C20.4108 8.095 20.234 7.97687 20.085 7.8279C19.936 7.67893 19.8179 7.50205 19.7374 7.30738C19.6568 7.11271 19.6155 6.90406 19.6157 6.69339C19.6157 6.48287 19.6571 6.27441 19.7377 6.07992C19.8183 5.88543 19.9364 5.7087 20.0852 5.55984C20.2341 5.41098 20.4108 5.2929 20.6053 5.21234C20.7998 5.13178 21.0082 5.09031 21.2188 5.09031C21.4293 5.09031 21.6377 5.13178 21.8322 5.21234C22.0267 5.2929 22.2035 5.41098 22.3523 5.55984C22.5012 5.7087 22.6193 5.88543 22.6998 6.07992C22.7804 6.27441 22.8218 6.48287 22.8218 6.69339C22.8218 7.5801 22.1047 8.29721 21.2195 8.29721Z" fill="#2F2FFF"/>
</svg>
