<svg width="16" height="16" viewBox="0 0 16 16" fill="none" xmlns="http://www.w3.org/2000/svg">
<path d="M15.4297 4.9961C15.4211 4.35136 15.3003 3.71303 15.0728 3.10966C14.8756 2.60072 14.5742 2.13851 14.1881 1.75257C13.802 1.36662 13.3396 1.06543 12.8304 0.868227C12.2346 0.644643 11.6051 0.523748 10.9687 0.510688C10.1495 0.474083 9.8897 0.463867 7.80998 0.463867C5.73025 0.463867 5.46368 0.463867 4.65036 0.510688C4.01431 0.523844 3.3851 0.644738 2.7895 0.868227C2.28027 1.06529 1.81779 1.36644 1.43166 1.7524C1.04553 2.13836 0.744259 2.60064 0.547111 3.10966C0.322984 3.70482 0.202298 4.3339 0.19027 4.96971C0.15365 5.7895 0.142578 6.04914 0.142578 8.12797C0.142578 10.2068 0.142578 10.4724 0.19027 11.2862C0.203045 11.923 0.323128 12.5512 0.547111 13.148C0.74459 13.6569 1.04609 14.119 1.43235 14.5047C1.8186 14.8905 2.28112 15.1916 2.79036 15.3886C3.38432 15.6211 4.01364 15.7507 4.65121 15.7716C5.47135 15.8083 5.7311 15.8193 7.81083 15.8193C9.89055 15.8193 10.1571 15.8193 10.9704 15.7716C11.6068 15.7591 12.2363 15.6385 12.8322 15.415C13.3412 15.2175 13.8035 14.9163 14.1895 14.5303C14.5756 14.1444 14.877 13.6823 15.0745 13.1735C15.2985 12.5776 15.4186 11.9494 15.4314 11.3118C15.468 10.4928 15.4791 10.2332 15.4791 8.15351C15.4774 6.07468 15.4774 5.81078 15.4297 4.9961V4.9961ZM7.80487 12.0592C5.62975 12.0592 3.86769 10.2979 3.86769 8.12372C3.86769 5.94954 5.62975 4.18823 7.80487 4.18823C8.84907 4.18823 9.85051 4.60286 10.5889 5.34091C11.3272 6.07896 11.742 7.07996 11.742 8.12372C11.742 9.16747 11.3272 10.1685 10.5889 10.9065C9.85051 11.6446 8.84907 12.0592 7.80487 12.0592V12.0592ZM11.8987 4.96035C11.7781 4.96046 11.6587 4.9368 11.5473 4.89072C11.4358 4.84464 11.3346 4.77705 11.2493 4.69181C11.164 4.60658 11.0964 4.50537 11.0503 4.39398C11.0042 4.28259 10.9806 4.16321 10.9807 4.04266C10.9807 3.92221 11.0044 3.80293 11.0505 3.69164C11.0966 3.58036 11.1642 3.47924 11.2494 3.39406C11.3347 3.30889 11.4358 3.24132 11.5471 3.19523C11.6585 3.14913 11.7778 3.12541 11.8983 3.12541C12.0188 3.12541 12.1382 3.14913 12.2495 3.19523C12.3608 3.24132 12.462 3.30889 12.5472 3.39406C12.6324 3.47924 12.7 3.58036 12.7461 3.69164C12.7922 3.80293 12.816 3.92221 12.816 4.04266C12.816 4.55003 12.4055 4.96035 11.8987 4.96035Z" fill="white"/>
</svg>
