<svg width="15" height="14" viewBox="0 0 15 14" fill="none" xmlns="http://www.w3.org/2000/svg">
<path d="M13.9622 4.48161C13.9547 3.93275 13.8483 3.38934 13.648 2.8757C13.4743 2.44245 13.2089 2.04898 12.8689 1.72043C12.5289 1.39188 12.1217 1.13548 11.6733 0.967608C11.1485 0.777275 10.5942 0.674358 10.0338 0.66324C9.31232 0.632079 9.08358 0.623383 7.25212 0.623383C5.42065 0.623383 5.18591 0.623383 4.46967 0.66324C3.90955 0.67444 3.35545 0.777355 2.83095 0.967608C2.38251 1.13536 1.97524 1.39173 1.6352 1.72029C1.29517 2.04885 1.02986 2.44238 0.856243 2.8757C0.65887 3.38236 0.552591 3.91788 0.541999 4.45914C0.50975 5.15701 0.5 5.37804 0.5 7.14772C0.5 8.9174 0.5 9.14351 0.541999 9.83631C0.553249 10.3784 0.658997 10.9132 0.856243 11.4212C1.03015 11.8544 1.29566 12.2478 1.6358 12.5762C1.97595 12.9046 2.38326 13.1609 2.8317 13.3286C3.35477 13.5265 3.90896 13.6368 4.47042 13.6547C5.19266 13.6858 5.4214 13.6953 7.25287 13.6953C9.08433 13.6953 9.31907 13.6953 10.0353 13.6547C10.5957 13.644 11.1501 13.5413 11.6748 13.351C12.123 13.183 12.5301 12.9265 12.8701 12.598C13.2101 12.2694 13.4756 11.8761 13.6495 11.4429C13.8467 10.9357 13.9525 10.4008 13.9637 9.85805C13.996 9.1609 14.0057 8.93987 14.0057 7.16946C14.0042 5.39978 14.0042 5.17513 13.9622 4.48161V4.48161ZM7.24762 10.4943C5.33215 10.4943 3.78043 8.99495 3.78043 7.1441C3.78043 5.29325 5.33215 3.79388 7.24762 3.79388C8.16717 3.79388 9.04906 4.14685 9.69928 4.77514C10.3495 5.40343 10.7148 6.25557 10.7148 7.1441C10.7148 8.03263 10.3495 8.88477 9.69928 9.51306C9.04906 10.1414 8.16717 10.4943 7.24762 10.4943V10.4943ZM10.8528 4.45117C10.7466 4.45126 10.6414 4.43112 10.5433 4.3919C10.4451 4.35267 10.356 4.29513 10.2809 4.22257C10.2058 4.15001 10.1462 4.06385 10.1057 3.96903C10.0651 3.8742 10.0442 3.77258 10.0443 3.66996C10.0443 3.56742 10.0652 3.46588 10.1058 3.37114C10.1464 3.2764 10.206 3.19032 10.281 3.11782C10.356 3.04531 10.4451 2.98779 10.5432 2.94855C10.6412 2.90931 10.7463 2.88911 10.8524 2.88911C10.9585 2.88911 11.0636 2.90931 11.1617 2.94855C11.2597 2.98779 11.3488 3.04531 11.4238 3.11782C11.4989 3.19032 11.5584 3.2764 11.599 3.37114C11.6396 3.46588 11.6605 3.56742 11.6605 3.66996C11.6605 4.10187 11.299 4.45117 10.8528 4.45117Z" fill="#2F2FFF"/>
</svg>
