<svg width="35" height="28" viewBox="0 0 35 28" fill="none" xmlns="http://www.w3.org/2000/svg">
<path d="M34.0479 3.69629C32.8056 4.24677 31.4711 4.61872 30.0681 4.78683C31.5157 3.92064 32.5987 2.55735 33.1151 0.951348C31.755 1.75919 30.2665 2.32783 28.7142 2.63253C27.6704 1.51799 26.2878 0.779251 24.781 0.531013C23.2743 0.282774 21.7278 0.538924 20.3816 1.25969C19.0353 1.98046 17.9647 3.12553 17.336 4.51711C16.7072 5.90868 16.5554 7.46892 16.9043 8.95558C14.1484 8.81721 11.4525 8.10093 8.99143 6.85321C6.53034 5.6055 4.35911 3.85424 2.61865 1.71309C2.02354 2.73965 1.68135 3.92987 1.68135 5.19746C1.68069 6.33858 1.9617 7.46221 2.49945 8.46868C3.0372 9.47515 3.81506 10.3333 4.76403 10.9671C3.66348 10.932 2.58722 10.6347 1.62482 10.0997V10.1889C1.62471 11.7894 2.17832 13.3406 3.19172 14.5794C4.20512 15.8181 5.61588 16.6681 7.18464 16.9851C6.1637 17.2614 5.09333 17.3021 4.05436 17.1041C4.49697 18.4812 5.35913 19.6855 6.52015 20.5482C7.68117 21.411 9.08291 21.8891 10.5292 21.9156C8.07408 23.8429 5.04207 24.8883 1.92089 24.8837C1.368 24.8839 0.815582 24.8516 0.266479 24.787C3.43466 26.824 7.12266 27.9051 10.8892 27.9009C23.6394 27.9009 30.6097 17.3407 30.6097 8.18194C30.6097 7.88438 30.6022 7.58385 30.5888 7.2863C31.9446 6.30581 33.1149 5.09167 34.0449 3.70076L34.0479 3.69629V3.69629Z" fill="#2F2FFF"/>
</svg>
