<svg width="39" height="35" viewBox="0 0 39 35" fill="none" xmlns="http://www.w3.org/2000/svg">
<path fill-rule="evenodd" clip-rule="evenodd" d="M14.766 11.9574H21.7013V15.1316C22.7004 13.306 25.2624 11.6657 29.1109 11.6657C36.4888 11.6657 38.2404 15.2998 38.2404 21.9674V34.316H30.771V23.4859C30.771 19.6888 29.772 17.5475 27.2287 17.5475C23.7013 17.5475 22.2354 19.8552 22.2354 23.4841V34.316H14.766V11.9574ZM1.95794 34.0243H9.4273V11.6657H1.95794V34.0243ZM10.4973 4.37529C10.4976 4.95055 10.3734 5.52013 10.132 6.05091C9.89062 6.5817 9.53683 7.06311 9.09118 7.46716C8.18814 8.29181 6.96579 8.75341 5.69262 8.75057C4.42169 8.74979 3.20217 8.28937 2.2978 7.46887C1.85376 7.06345 1.50116 6.5815 1.2602 6.05065C1.01923 5.51979 0.894636 4.95046 0.893555 4.37529C0.893555 3.21369 1.39774 2.10185 2.29966 1.2817C3.20324 0.460106 4.42328 -0.000513385 5.69449 4.29404e-07C6.96802 4.29404e-07 8.18926 0.46155 9.09118 1.2817C9.99124 2.10185 10.4973 3.21369 10.4973 4.37529Z" fill="#2F2FFF"/>
</svg>
