<svg width="25" height="20" viewBox="0 0 25 20" fill="none" xmlns="http://www.w3.org/2000/svg">
<path d="M24.2519 2.66189C23.3609 3.0562 22.4038 3.32263 21.3976 3.44306C22.4358 2.82259 23.2125 1.84605 23.5829 0.695649C22.6074 1.27432 21.5398 1.68164 20.4265 1.89991C19.6779 1.10154 18.6862 0.572374 17.6056 0.394557C16.525 0.216741 15.4158 0.400224 14.4502 0.916521C13.4847 1.43282 12.7168 2.25304 12.2659 3.24985C11.8149 4.24666 11.7061 5.36427 11.9563 6.42919C9.97976 6.33007 8.0462 5.81699 6.28108 4.92323C4.51596 4.02948 2.95873 2.77503 1.71045 1.24129C1.28363 1.97664 1.0382 2.82921 1.0382 3.7372C1.03773 4.55459 1.23927 5.35947 1.62495 6.08041C2.01063 6.80136 2.56853 7.41608 3.24914 7.87003C2.45981 7.84495 1.6879 7.63193 0.997656 7.24872V7.31266C0.997576 8.4591 1.39463 9.57025 2.12146 10.4576C2.84828 11.3449 3.8601 11.9538 4.98523 12.1808C4.253 12.3788 3.48531 12.4079 2.74015 12.2661C3.0576 13.2525 3.67595 14.1151 4.50865 14.7331C5.34135 15.3512 6.3467 15.6936 7.38396 15.7126C5.62315 17.0932 3.44855 17.842 1.21 17.8387C0.813462 17.8388 0.417261 17.8157 0.0234375 17.7694C2.2957 19.2286 4.94078 20.003 7.64219 20C16.7868 20 21.786 12.4355 21.786 5.87502C21.786 5.66187 21.7806 5.4466 21.771 5.23346C22.7434 4.53112 23.5828 3.66142 24.2498 2.66509L24.2519 2.66189V2.66189Z" fill="#2F2FFF"/>
</svg>
