<svg width="28" height="28" viewBox="0 0 28 28" fill="none" xmlns="http://www.w3.org/2000/svg">
<path d="M27.6558 8.4033C27.6408 7.2733 27.429 6.15453 27.0299 5.09703C26.6838 4.20504 26.1553 3.39496 25.478 2.71853C24.8008 2.04211 23.9896 1.51422 23.0965 1.1686C22.0513 0.776736 20.9471 0.564849 19.8309 0.54196C18.3938 0.477804 17.9382 0.4599 14.2902 0.4599C10.6421 0.4599 10.1745 0.4599 8.74789 0.54196C7.6322 0.565017 6.52851 0.776902 5.48378 1.1686C4.59053 1.51398 3.7793 2.04178 3.102 2.71824C2.42469 3.39469 1.89623 4.2049 1.55041 5.09703C1.15727 6.14014 0.945575 7.24269 0.924477 8.35705C0.860241 9.79385 0.84082 10.2489 0.84082 13.8924C0.84082 17.5358 0.84082 18.0013 0.924477 19.4277C0.946885 20.5437 1.15752 21.6448 1.55041 22.6907C1.89681 23.5825 2.42566 24.3924 3.10319 25.0686C3.78073 25.7448 4.59203 26.2723 5.48527 26.6176C6.52715 27.0252 7.63103 27.2523 8.74938 27.289C10.188 27.3532 10.6436 27.3726 14.2917 27.3726C17.9397 27.3726 18.4073 27.3726 19.8339 27.289C20.9501 27.2671 22.0544 27.0557 23.0995 26.6639C23.9924 26.3179 24.8033 25.7898 25.4805 25.1135C26.1577 24.4371 26.6864 23.6272 27.0329 22.7354C27.4258 21.691 27.6364 20.5899 27.6588 19.4724C27.7231 18.0371 27.7425 17.5821 27.7425 13.9371C27.7395 10.2937 27.7395 9.83115 27.6558 8.4033ZM14.2812 20.7824C10.4658 20.7824 7.37502 17.6955 7.37502 13.8849C7.37502 10.0743 10.4658 6.9874 14.2812 6.9874C16.1128 6.9874 17.8694 7.7141 19.1646 9.00763C20.4598 10.3012 21.1874 12.0556 21.1874 13.8849C21.1874 15.7142 20.4598 17.4686 19.1646 18.7622C17.8694 20.0557 16.1128 20.7824 14.2812 20.7824ZM21.4622 8.34064C21.2507 8.34083 21.0412 8.29937 20.8457 8.21861C20.6503 8.13785 20.4727 8.01938 20.3231 7.86999C20.1735 7.7206 20.0549 7.54322 19.974 7.34799C19.8932 7.15277 19.8516 6.94353 19.8518 6.73226C19.8518 6.52115 19.8935 6.3121 19.9744 6.11705C20.0553 5.922 20.1738 5.74478 20.3233 5.5955C20.4728 5.44622 20.6502 5.3278 20.8455 5.24701C21.0408 5.16622 21.2501 5.12463 21.4615 5.12463C21.6729 5.12463 21.8822 5.16622 22.0775 5.24701C22.2728 5.3278 22.4502 5.44622 22.5997 5.5955C22.7492 5.74478 22.8677 5.922 22.9486 6.11705C23.0295 6.3121 23.0711 6.52115 23.0711 6.73226C23.0711 7.62149 22.3511 8.34064 21.4622 8.34064Z" fill="#2F2FFF"/>
</svg>
